<?xml version="1.0" encoding="UTF-8"?>
<svg width="650.35" height="458.93" enable-background="new 0 0 1877 1526" version="1.1" viewBox="0 0 650.35 458.93" xml:space="preserve" xmlns="http://www.w3.org/2000/svg" xmlns:cc="http://creativecommons.org/ns#" xmlns:dc="http://purl.org/dc/elements/1.1/" xmlns:rdf="http://www.w3.org/1999/02/22-rdf-syntax-ns#"><metadata><rdf:RDF><cc:Work rdf:about=""><dc:format>image/svg+xml</dc:format><dc:type rdf:resource="http://purl.org/dc/dcmitype/StillImage"/><dc:title/></cc:Work></rdf:RDF></metadata>
<path d="m21.819 10.006c-1.0997-0.03854-2.1693 0.10935-3.0254 0.87962-0.15507 0.83601 0.58295 1.4798 1.1055 2.0259 1.2153 1.2699 2.885 2.3078 4.2664 3.3987 6.7862 5.3586 14.809 9.0012 22.845 12.028 0.76994 0.28991 1.5404 0.57756 2.311 0.86646 2.9729 1.1145 5.9452 2.2388 8.845 3.5343 1.4684 0.656 2.9184 1.3556 4.3349 2.1174 1.343 0.72241 2.4493 1.6006 3.6851 2.4842-2.1406-0.10113-4.2071-0.71131-6.3174-1.0383-4.4352-0.68735-8.813-1.6909-13.226-2.5013-4.5374-0.83332-9.1004-1.5286-13.68-2.0838-0.13754-0.01652-0.27462-0.03352-0.41216-0.05004 0.21035 0.0037 0.4204 0.0078 0.63075 0.01119-1.7003 0-3.5986-0.41403-5.2791-0.6854-1.7044-0.27508-3.4225-0.54417-5.1579-0.57215-2.5788-0.19215-5.1711-0.26639-7.7566-0.16526-1.7327 0.14158-3.7217 0.4382-4.8544 1.9113-0.30676 0.70791-0.07393 1.6449 0.58005 2.0865 2.1507 1.6451 4.6689 2.6902 6.9376 4.1532 0.89366 0.45643 1.6689 0.89396 2.6013 1.2654 1.0315 0.41093 2.0674 0.81027 3.1077 1.1989 2.0799 0.77736 4.1768 1.5107 6.2877 2.1997 4.2219 1.3781 8.5017 2.5781 12.824 3.5962 4.7208 1.1118 9.3565 2.07 13.855 3.953 2.8687 1.2439 5.4475 3.2998 8.5994 3.7819-4.6149 0.09776-9.2366-0.05741-13.848-0.27653-10.231-0.07079-20.644-0.42469-30.636 2.1609-2.3294 0.45509-4.6316 1.4362-6.27 3.1959-0.83264 0.79893-0.46833 2.3228 0.49578 2.8588 2.4035 1.5099 5.0323 2.6522 7.7507 3.4606 2.6968 0.80196 5.503 1.1799 8.2379 1.754 2.0536 0.43082 4.1381 0.70125 6.2278 0.8816 3.6683 0.31721 7.386 0.25882 11.077 0.4668 2.119 0.11934 4.239 0.22722 6.3529 0.42072 1.8551 0.1699 3.964 0.21285 5.7169 0.823 3.9566 1.3771 8.058 2.3908 12.237 2.7653 4.5681 0.40924 9.2359 0.0413 13.595-1.3859-0.22889 0.07484-0.54501 0.512-0.76177 0.66235-0.33879 0.23462-0.70889 0.4234-1.0969 0.56228-0.72174 0.25856-1.493 0.27211-2.2333 0.43257-1.877 0.40688-3.8085 0.5449-5.6932 0.92109-3.3879 0.58657-6.8294 0.78883-10.207 1.4327-3.1452 0.37755-6.2941 0.77185-9.3954 1.409-4.1531 0.85321-8.3002 1.7587-12.371 2.9496-4.0081 1.1724-8.3289 2.5186-11.935 4.674-1.4967 0.89468-2.7788 2.3296-3.4507 3.9392-0.65398 1.2439-0.53583 2.8145 0.24624 3.9741 0.64622 1.2365 1.9589 1.7997 3.1761 2.3209 1.4849 0.63578 2.8476 1.0582 4.4633 1.2931 3.816 0.5552 7.7102 0.56947 11.53 0.0375 4.0395-0.56263 7.9707-1.7262 11.985-2.4466 3.4995-0.62802 7.1445-0.91867 10.647-0.15143 0.73589 0.16114 1.4184 0.50937 2.153 0.60376 0.89871 0.11528 1.8224 0.083 2.7231 0.01 1.8315-0.149 3.6309-0.54179 5.4522-0.76967 4.0452-0.37418 10.103-1.2442 12.038-1.3655-3.5261 1.6349-7.238 2.7983-10.855 4.1973-3.0744 1.2608-6.2495 2.2653-9.2868 3.6238-2.771 1.2574-5.5154 2.5784-8.2965 3.8089-2.8317 1.2978-5.4271 3.0338-8.07 4.6687-1.8675 1.2574-3.7653 2.5016-5.4002 4.0623-1.4226 1.2911-2.2991 3.1016-2.6935 4.9624-1.0912 5.1492 6.2518 5.2885 9.5527 4.8847 1.8035-0.2208 3.5097-0.84043 5.2876-1.1924 2.0513-0.4062 4.0312-1.0816 5.8947-2.0582 1.8406-0.96411 3.9307-1.3283 5.7274-2.3834 2.1103-1.19 4.5001-1.7153 6.7216-2.6356 0.99107-0.37419 1.9652-0.95419 3.0642-0.86317 1.6012-0.0775 3.1755 0.48522 4.7767 0.20543 2.3698-0.44835 4.5109-1.6012 6.7796-2.363 3.6643-1.2169 6.664-3.7352 9.9103-5.7241-0.55116 0.33778-1.2854 2.4879-0.91057 3.0425-0.36946-0.52419-8.095 4.2049-8.8555 4.6272-2.059 1.0838-4.073 2.2647-6.1067 3.3954-2.4254 1.3484-5.0425 2.4426-7.3695 3.932-1.2908 0.82624-2.5546 1.6942-3.7891 2.6027-2.2431 1.6508-4.4459 3.5089-6.2423 5.6866-0.93613 1.1347-1.8182 2.2862-2.3353 3.6686-0.5188 1.3872-1.3602 2.6955-1.1246 4.2546 0.21204 1.4017 1.2491 2.5473 2.4091 3.3625 1.5665 1.1013 3.5023 2.3845 5.4147 2.7021 1.3801 0.22889 2.3701-0.64106 3.6403-0.90399 1.2941-0.26766 2.6362-0.14717 3.9293-0.4273 1.0177-0.22047 1.9552-0.68471 2.893-1.1213 0.87916-0.40925 1.8838-1.0677 2.891-0.99288-1.5341 1.7924-3.3119 3.5759-4.5825 5.5661-0.68297 1.07-1.211 2.2268-1.6783 3.4046-0.5151 1.2992-0.846 2.3547-0.91847 3.7608-0.0344 0.66813-0.0405 1.3485 0.14089 1.9923 0.477 1.695 2.5149 2.487 3.9563 3.1801 1.7529 0.84275 3.6441 1.4426 5.5892 1.6078 1.5911-0.14496 2.8885-1.1597 4.2605-1.881 1.0619-0.20901 2.1444-0.31013 3.213-0.50566-0.76185 1.3282-1.4059 2.7237-2.2656 3.9912-0.54644 1.6336-1.287 3.3899-1.4228 5.1131-0.21776 2.7673-0.0876 5.9829 1.6816 8.2722 1.7293 2.2377 4.0892 2.8738 6.7782 2.9753-0.43452 0.0715 1.564 0.1442 2.8035-0.55832 1.2395-0.70252 2.2743-1.7142 3.236-2.7653 1.0315-1.1273 2.0007-2.3155 3.1182-3.3572 1.1178-1.042 2.4073-1.9441 3.874-2.3716-0.27069 0.0789-0.71274 0.92417-0.88028 1.1588-0.30508 0.42779-0.5966 0.86521-0.8737 1.3115-0.5542 0.89299-1.0508 1.8211-1.4867 2.7771-1.4708 3.2267-2.1769 6.732-1.9015 10.277 0.0819 1.0518 0.58804 2.0839 0.90728 3.0793 0.3317 1.0342 0.63167 2.2037 1.5472 2.8891 1.2426 0.93006 3.4901 1.6068 5.0526 1.5387 1.8507-0.0809 3.8494-0.36093 5.2652-1.6756-0.62701 1.5102-0.97074 3.1047-1.3247 4.6924-0.10551 0.92534 0.0451 1.8464 0.17316 2.7613 0.14462 1.0309 0.31033 1.519 0.97509 2.3578 0.29699 0.37485 0.62041 0.74196 1.0337 0.98299 0.41329 0.24103 0.93412 0.34008 1.3761 0.1567-0.13214 0.61588 0.24114 1.2523 0.75387 1.6184 0.5751 0.41024 1.2853 0.61531 1.9693 0.58531 0.20327-9e-3 2.3348-0.38106 2.3452-0.33117 0.14158 0.66072 0.29314 1.3244 0.45495 1.9851 0.28654 0.28317 0.57334 0.57318 0.85987 0.86646 0.20563-0.0506 0.61013-0.14827 0.81576-0.19884 3e-3 0.2798 0.01 0.84278 0.0132 1.1226 0.43486-0.0236 0.87001-0.047 1.3082-0.0639 1.1529-0.96411 2.5821-1.3185 4.0215-1.5848-0.40452 1.5035-0.2863 3.0709-0.43125 4.6114-0.12473 1.0214 0.0236 2.0569 0.22583 3.0649 0.23597 0.92029 1.1462 1.402 1.881 1.8975 0.14496 0.27305 0.29346 0.55301 0.44179 0.83617 0.27979-7e-3 0.83554-0.0137 1.1153-0.0204 0.75848-0.62701 1.5072-1.3011 2.4275-1.6888 0.091 0.091 0.27637 0.27308 0.36738 0.3641-0.22585 2.5148-0.38435 5.1104 0.36739 7.5578 0.2326 0.70791 0.97051 1.0048 1.6717 0.97443 0.0236 0.22586 0.0679 0.68068 0.0915 0.90991 0.3607-0.0168 0.72427-0.0333 1.0883-0.0434 0.56296-0.51239 1.1192-1.0316 1.6822-1.544 0.71803-0.15844 1.3891-0.46225 2.0127-0.85329 0.027 3.2294-0.52594 6.6308 0.78876 9.6917 0.35733 0.68431 1.2003 0.60709 1.8442 0.49248 0.0101 0.21912 0.0366 0.65714 0.0467 0.87963 0.92029-0.0539 1.7261-0.44464 2.2991-1.166 0.0371 2.1406 0.25627 4.2743 1.0923 6.27 0.36407 0.18541 0.72822 0.37729 1.0923 0.57281 0.18204-0.1281 0.54937-0.38414 0.73478-0.51224 0.0371 0.30002 0.11106 0.89696 0.14814 1.197 1.5271-0.43823 2.4642-1.7534 3.6508-2.7041 0.10787 3.4486-0.40126 7.0624 0.9876 10.332 0.63038 0.29328 1.2745 0.56309 1.9285 0.80917 0.18203 0.8259 1.2577 0.58985 1.6723 0.0876 0.76522-0.76185 1.3586-1.7364 2.3867-2.178 0.28316 0.86972 0.58255 1.7329 0.86909 2.6027 0.57644 0.25619 1.1973 0.36091 1.8277 0.38451 0.0405 0.18203 0.11764 0.53899 0.15473 0.71765 0.39103-0.16518 0.78544-0.32367 1.1798-0.47536 0.71128-0.84613 1.1764-2.1471 2.4743-2.1438-0.0506 2.0597 0.28657 4.0922 0.53265 6.1317 0.23934 1.1057 0.76559 2.1274 1.2207 3.1623 0.43824 0.14496 0.87586 0.29347 1.3175 0.44179 0.13147-0.19215 0.39789-0.58016 0.52936-0.7723 0.0809 0.38766 0.16518 0.78207 0.25283 1.1798 0.82927-0.43149 1.6015-0.97404 2.151-1.7494-0.0809 1.4866 0.68782 2.7878 1.3148 4.0755 0.4888 0.95062 1.6176 1.992 2.7436 1.3853 0.17529 0.43823 0.3539 0.87973 0.53594 1.3247 0.0742-0.11461 0.22607-0.34042 0.30023-0.45166 0.35059-0.0371 0.70475-0.0705 1.0587-0.0974 0.44497-0.4888 0.90312-0.96411 1.3616-1.4327 0.30677 2.0395 0.55306 4.2 1.8172 5.9124 0.71803 0.81916 1.6585 1.4265 2.6698 1.831 0.16855 0.27642 0.3371 0.55958 0.50565 0.84275 0.52588 0.027 1.0549 0.05 1.5841 0.0803 0.94726-1.0046 1.8208-2.0795 2.9029-2.9391 0.59666 2.7103 1.0853 5.616 2.8719 7.8442 0.72477 0.98434 2.3463 0.23582 2.8621 1.4393 0.44498-0.14495 0.88953-0.28959 1.3379-0.43455 0.48543-0.77196 0.94771-1.5607 1.3859-2.363 0.41463 1.1731 0.76828 2.3632 1.1088 3.5633 0.70117 1.699 1.7697 3.3873 3.6001 4.011 0.22249-0.20563 0.44835-0.4075 0.67421-0.60639 0.19214 0.37418 0.38456 0.76493 0.60704 1.1357 0.49217-0.11124 0.96759-0.26957 1.4564-0.39767 1.1428-1.4563 2.3324-2.9026 3.2426-4.5173 0.37418-0.19552 0.75547-0.38403 1.1364-0.57281 0.15507 0.38767 0.31685 0.78215 0.47866 1.1766 0.50228-0.19215 1.0279-0.32404 1.5571-0.43191 1.1563-1.4192 2.5556-2.643 3.5231-4.2105 1.79-2.68 3.2765-5.579 4.2474-8.6534 0.3944-1.2338 0.219-2.7773 1.2404-3.7246 2.3024-2.1912 4.0754-4.8913 5.4845-7.7263 0.7214-1.372 0.75848-3.0171 1.6855-4.2948 0.96411-1.3316 0.94041-3.1489 2.0832-4.3659 1.0888-1.3518 2.0193-2.8447 2.6092-4.4831 0.55959-1.6518 2.1441-2.8989 2.0733-4.7563-0.0607-0.97085 0.9439-1.4837 1.2068-2.34 0.40115-1.308 1.1529-2.4642 1.6282-3.7384 1.3248-3.4351 2.4404-6.9439 3.4922-10.467 0.68432-2.9294 2.0162-5.6369 3.4961-8.236 0.027 2.6698-0.20555 5.3535 0.33381 7.993 1.5271-0.57981 2.518-1.9213 3.4619-3.182 0.81241-1.2237 2.3122-1.7129 3.2156-2.8489 0.71128-0.91017 1.1563-1.985 1.6282-3.0267 0.0169 1.399 0.1045 2.7944 0.16855 4.1934 1.49-0.32362 2.7983-1.1969 3.8332-2.2958 0.87309-0.99445 1.1562-2.3594 2.0259-3.3572 0.70117-0.81578 1.4024-1.6654 1.7092-2.7205 0.60004-1.817 1.9009-3.2839 2.5717-5.0638 0.57981-1.4259 1.4865-2.6897 1.9989-4.146 1.3349-3.3575 2.8556-6.6543 3.8905-10.116 0.0809 0.16855 0.23908 0.50919 0.31998 0.68145 1.0197 4.3523 1.7632 8.7631 2.7337 13.126 1.1775 5.2935 2.1709 10.778 1.5176 16.209-0.65061 5.4085-2.3143 10.293-4.0828 15.399-1.4967 4.322-2.6406 8.9705-3.4954 13.474-0.0202 0.21911-3.8597 14.771-4.2474 16.056-1.3248 5.1172-2.7004 10.248-3.3914 15.503-0.68431 5.0262-0.58676 10.113-0.3845 15.17 0.45846 8.4478 1.1061 16.885 1.8376 25.313 0.73151 7.9724 1.1288 15.985 2.2379 23.917 0.51577 4.2205 0.88313 8.4617 1.436 12.679l0.65775 4.8406c0.0607 3.3912 1.763 6.4519 2.3057 9.7555 0.65735 3.7452 2.1472 7.2651 3.5731 10.764 3.0777 7.4634 7.8548 14.03 12.46 20.597 2.1608 3.0575 3.7212 6.4825 5.2415 9.8872 0.65734 1.3484 0.59374 2.8986 1.1331 4.2908 0.42138 1.4259 1.227 2.6869 1.7731 4.0656 0.15169 1.2203-0.0206 2.4574-0.0711 3.6844-0.22586 2.353-0.11804 4.7162-0.13826 7.0726-0.0236 1.9687 0.18911 3.9439 0.68802 5.8519 0.64387 2.4912 0.70107 5.1141 1.4933 7.5716 0.58319 0.97423 1.4999 1.9853 2.7337 1.9785 0.39441 0.85623 0.95753 1.6152 1.5946 2.313 0.61015-7e-3 1.2273-0.0204 1.8442-0.0474 0.16181 1.0383-0.0239 2.4169 0.99748 3.0675 0.74837 0.58992 1.8238 0.46182 2.579-0.0573 0.17529 0.43149 0.32722 0.89032 0.58005 1.305 0.90343 0.72477 2.2311 0.60348 3.1952 0.054 0.0674-0.29328 0.13521-0.58329 0.20937-0.86646 0.39778 1.0113 0.62688 2.2349 1.5505 2.9259 1.1124 0.71129 2.4976 0.41477 3.7213 0.24622 0.93816-0.44187 1.1526-0.63606 1.8538-1.5972 0.32991-4.348-0.75601-7.1831-1.0374-9.9142-0.66746-1.5035-0.33689-3.1787-0.6268-4.753-0.49554-3.0305-2.1271-5.6905-3.3137-8.4749-0.91355-2.2451-2.2284-4.4834-1.9857-6.9982 0.27979-3.4553-0.047-6.9275-0.76836-10.309-0.6034-3.4115-1.4028-6.9808-3.6614-9.7147-0.56296-0.76522-1.4091-1.2275-2.2484-1.6118-1.0214-6.0813-1.7727-12.21-2.2649-18.352-0.59666-3.4283-0.7653-6.9714-2.0193-10.248-1.1394-4.0452-3.5936-7.5272-5.7847-11.053 0.0708-0.60004 0.14517-1.1904 0.21596-1.7803l0.88292-8.0496c0.061-0.22781 0.0909-0.468 0.0777-0.71172 0.0472-2.7204 0.63362-5.4101 0.45495-8.1339 0.14833-0.78882 0.43176-1.551 0.52277-2.3465 0.89669-8.8456 2.7-17.559 4.3349-26.283 1.2001-7.278 3.0508-14.465 3.4823-21.851 0.0809-2.5957 0.46167-5.1947 0.0909-7.7836-0.28654-1.5608 0.7382-2.8924 1.2944-4.2678 1.5878 0.42475 3.2528 0.45851 4.8676 0.13826 0 0.10451 0.027 0.21904 0.0843 0.3404 0.0769 0.15891 0.14429 0.31708 0.20345 0.47602h0.82103v-231.71c-0.24825-0.01972-0.49681-0.03853-0.74531-0.05004-2.862 0.16518-5.7544 0.65424-8.3703 1.8712-4.6756 2.0159-8.3294 6.0543-10.13 10.787-1.817 4.8408-1.0251 10.079-1.224 15.116-0.13484-0.39778-0.26629-0.79532-0.39438-1.1897-0.32699-0.04045-0.65024-0.08143-0.97049-0.11851-0.32699 1.5406-0.67444 3.0915-0.66432 4.6793 0.0573 1.136-0.44163 2.225-0.27983 3.3644 0.0674 1.1428 0.77168 2.1037 1.0515 3.1959 0.41126 1.5271 1.0421 2.9867 1.7803 4.3823 0.72477 0.3371 0.91367-0.35457 1.1463-0.8737 0.62027 3.7418 0.92993 7.6421 2.6323 11.094 0.89331 1.5574 0.48882 3.4154 0.44836 5.1178-0.16855 2.8586-1.7494 5.6532-4.2743 7.0521-1.999 0.37756-3.9471 1.0821-6 1.1226-2.5795 0.0509-5.1323-0.33301-7.7145-0.42336-3.459-0.12101-6.9169-0.12957-10.213 0.9323-6.5701 2.1338-12.146 6.4415-17.145 11.09-4.052 0.12136-8.1041-0.0703-12.156-0.13102-3.4148-0.26294-6.9949-0.20603-10.167-1.669-3.462-1.8979-6.1583-4.8739-8.7607-7.7764-4.6284-5.3633-9.5773-10.44-13.98-15.996-2.4946-3.489-4.9552-6.9984-7.4261-10.501-4.6048-6.4757-8.9605-13.17-14.314-19.063-2.5825-2.8428-5.4889-5.3757-7.9686-8.3459-1.0632-1.2732-2.0902-2.5874-3.296-3.7318-1.312-1.2453-2.9263-1.8381-4.3013-2.9529-1.3572-1.1006-2.7698-2.1373-4.2078-3.1294-2.9136-2.0098-5.9721-3.8099-9.1445-5.3798-3.7482-1.8547-7.7268-3.3994-11.893-3.959-3.5965-0.48307-8.2026-0.50867-10.974 2.2326 0.83938 2.9362 3.2257 5.0496 5.4371 7.0014 0.0236 0.18541-3.3407-1.5574-4.9722-2.2214-4.9655-2.2114-9.9547-4.423-15.136-6.0849-4.797-1.9518-9.9103-2.9729-14.684-4.9854-4.4632-1.6754-8.9536-3.2731-13.474-4.7833-4.4059-1.4765-8.7342-3.2299-13.262-4.3086-3.0204-0.5461-6.088-0.77483-9.132-1.1726-3.0643-0.45509-5.9334-1.6692-8.8897-2.5322-2.235-0.65061-4.4594-1.3181-6.6775-2.0226-4.3823-1.5372-8.8865-2.6833-13.323-4.0452-5.4897-1.4721-10.987-3.0014-16.546-4.1907-1.883-0.40284-3.7787-0.76987-5.6971-0.95797-0.64155-0.062953-1.3121-0.15333-1.9719-0.17645zm296.36 428.47c-212.12-292.32-106.06-146.16 0 0z" fill="#fff" stroke-width=".3371"/>
<path d="m446.54 18.25c-1.0406-2e-3 -1.3274 0.42228-7.4492 7.3335-4.1535 4.6892-7.7751 6.9455-12.844 8.0029-1.3906 0.29004-3.9958 1.1012-5.7892 1.8019-1.7934 0.70077-3.4488 1.2736-3.679 1.2736-0.2302 0-1.2423 0.28985-2.2489 0.64409l-1.8303 0.6441-0.79519-1.0267c-2.5851-3.3371-3.2595-3.9098-5.293-4.501-1.6406-0.477-2.4654-1.0242-4.1138-2.7282-2.5687-2.655-3.477-2.9523-9.4452-3.0893-2.69-0.06175-5.103-0.29489-5.5446-0.53521-0.64831-0.35285-0.89335-0.30158-1.4369 0.29905-0.36053 0.39832-0.96378 0.7246-1.3403 0.7246-0.37661 0-1.5648 0.49686-2.6408 1.1042-1.2207 0.68895-2.482 1.1042-3.3531 1.1042-0.81774 0-2.6283 0.55596-4.3706 1.3426-2.9094 1.3136-2.9992 1.3294-4.057 0.72231-1.0285-0.59024-1.1193-0.58602-1.8556 0.08664-0.42589 0.38913-1.1212 0.81224-1.5443 0.94007-0.42306 0.12783-0.96778 0.60222-1.2107 1.0543-0.24288 0.4521-1.2397 1.4845-2.2152 2.2942-0.97554 0.80972-2.0374 1.9277-2.3602 2.4844-0.34485 0.5947-0.90464 1.0122-1.3572 1.0122-0.78056 0-2.565 3.0958-2.5733 4.4642-6e-3 1.0425-1.0038 1.5904-2.0373 1.1195-0.59876-0.27282-1.2148-0.29619-1.8103-0.06978-2.5743 0.97881-4.9723 0.04822-4.9833-1.9338-4e-3 -0.7531-0.25151-1.1149-0.94317-1.3779-0.53856-0.20474-1.1632-0.89517-1.4668-1.6217-0.29075-0.69594-0.69701-1.3697-0.9025-1.4967-0.20549-0.12701-0.37342-0.63535-0.37342-1.1295 0-1.7434-2.1185-0.66237-3.3209 1.6946-0.40414 0.79216-1.2304 1.6967-1.8357 2.0097-0.64184 0.33193-1.1003 0.86332-1.1003 1.2751 0 0.38835-0.40191 1.1711-0.8933 1.7391l-0.89329 1.0329-0.77753-0.82812c-0.044-0.04698-0.0922-0.09237-0.14103-0.13726v58.093c0.45176 0.0374 0.90799-0.0343 1.3878-0.20779 1.9386-0.70102 2.5827 0.14808 0.74687 0.98453-0.69244 0.31548-1.4159 0.46893-2.1347 0.49151v7.7122c0.54913 0.0406 1.1232 0.0737 1.66 0.0851 2.7363 0.058 3.3052 0.34074 2.4345 1.2115-0.54589 0.54587-2.4549 0.83883-4.0946 0.79975v2.5787c1.9042 9e-3 4.484-0.55729 5.2907-1.256 0.30893-0.26758 1.3027-0.59672 2.2083-0.7315 0.90562-0.13478 1.991-0.45923 2.4115-0.72077 1.3476-0.83815 4.4206-1.6006 4.9764-1.2345 0.73549 0.48434-0.76205 1.6738-2.7396 2.1754-0.84121 0.21333-2.4407 0.70504-3.5541 1.0934s-2.4383 0.7547-2.9444 0.81355c-0.75965 0.0883-0.93984 0.33128-1.0328 1.3948-0.0619 0.70851-0.38291 1.4952-0.71389 1.7482-0.73112 0.55902-2.2485 0.43797-3.9021-0.0606v158.3c0.0542-0.0254 0.1078-0.0538 0.16251-0.0767 1.2309-0.6672 2.7254 0.0579 3.9872-1.2169 1.1871 1.4271 2.0329 2.9196 2.456 1.7214 1.536-0.76713 1.6403-0.77411 2.3195-0.15951 1.0089 0.8962 1.7474-0.19969 2.6945 0.1503 0.45819 0.45813 0.0597 1.1709-0.65482 1.1709-0.65745 0-0.66544 0.71078-0.0175 1.5642 0.26911 0.35449 0.41389 1.0377 0.32203 1.5182-0.10807 0.56531 0.096 1.119 0.57894 1.5688 0.41039 0.38238 0.92443 1.1648 1.1425 1.7383 0.218 0.57351 0.72631 1.1285 1.1287 1.2337 0.89288 0.23346 0.89746 0.0925-0.069 1.9032-0.75092 1.4067-0.76218 1.541-0.18402 2.1799 0.33892 0.37449 0.61649 0.84161 0.61649 1.0375 0 0.19585 0.57584 1.4249 1.2798 2.7312 0.70384 1.3064 1.2834 2.8105 1.2882 3.3424 9e-3 1.0838 0.4947 1.5861 1.8487 1.9147 0.50609 0.1228 1.3342 0.60651 1.8403 1.075 1.5138 1.4013 3.541 2.5015 6.1657 3.3447 2.6693 0.8578 4.2871 2.9284 4.5792 5.8628 0.13915 1.3982 1.0329 1.8361 1.0329 0.50605 0-1.4222 2.8322-1.2282 3.0004 0.20552 0.0307 0.26279 0.0723 0.72692 0.092 1.0305 0.0219 0.33999 0.53097 0.62276 1.3243 0.7361 1.1089 0.15838 1.305 0.33776 1.4086 1.2882 0.17509 1.607 0.68958 1.9313 1.2192 0.76907 0.50977-1.1188 1.9248-1.0895 2.801 0.0575 0.82431 1.0791 0.52786 1.5182-1.1042 1.6363l-1.5642 0.11346 1.2882 0.67554c0.70849 0.37159 1.6249 1.0742 2.0366 1.5619 0.66918 0.79284 0.86598 0.84226 1.8602 0.46698 1.548-0.58425 3.8996-4e-3 4.3813 1.0827 0.20102 0.45297 0.57756 0.74195 0.83659 0.64254 1.6814-0.64542 2.7939 4.4077 1.1908 5.4089-0.87629 0.54722-0.93987 1.2355-0.18409 1.9913 0.83048 0.83048 0.67444 2.1748-0.32813 2.8317-1.1983 0.78518-1.5399 3.0098-1.3081 8.5174 0.0682 1.619 0.22394 2.0602 0.78977 2.2398 0.38756 0.12301 0.85755 0.62519 1.0443 1.1164 0.18679 0.49126 0.76094 1.085 1.276 1.3196 0.51495 0.23462 1.0299 0.80176 1.1448 1.2598 0.12203 0.48603 0.65506 0.98838 1.2797 1.2061 0.75167 0.26207 1.0704 0.61788 1.0704 1.1962 0 0.45293 0.32824 1.1734 0.73 1.601 1.8579 1.9776 1.4575 5.5438-0.44118 3.645-5.4266 1.3555-5.296-0.0923-10.287-0.15868l-2.0021 0.0866v-1.4722c0-0.80979-0.10545-1.555-0.23463-1.6562-0.12917-0.10123-0.58271-1.3536-1.0075-2.7834-1.3729-4.6212-2.9304-5.2407-4.8092-1.9116-1.2437 2.2038-4.7324 5.4311-5.8712 5.4311-0.41062 0-1.485 0.71759-2.3877 1.5949-0.90271 0.87731-2.4415 1.8973-3.4191 2.2666-0.97753 0.36933-1.8602 0.78653-1.9614 0.92703s-1.095 0.55413-2.2083 0.91938c-8.5148 2.7932-15.066 6.0747-15.835 7.93-1.0227 2.4689 0.61405 3.0318 4.8913 1.6831 7.7344-2.439 9.1567-2.6007 18.488-2.1056 10.869 0.57671 11.675 0.76437 19.976 4.6474 3.1412 1.4694 5.7288 0.27326 3.0058-1.3894-0.41723-0.25475-1.6582-1.7053-2.7573-3.2236-1.0991-1.5182-2.4992-3.0916-3.1116-3.4965-2.6334-3.6085 7.8136-0.70216 10.995 0.099 1.2677 0.24916 2.3508 0.52008 2.4069 0.60197 0.26085 0.38075 2.4722 6.0744 2.4682 6.3588-7e-3 0.81464 2.1288 5.0596 3.6154 7.1839 1.6277 2.3258 1.642 2.3723 1.2353 4.0486-1.0345 4.2635 1.6846 14.359 4.5209 16.785 0.47332 0.40486 1.1056 1.3158 1.4056 2.0243 2.1211 5.0112 7.6225 6.3286 9.5532 2.288l0.82967-1.736 2.5763 0.029c1.7615 0.0199 3.4922 0.34017 5.471 1.0122 4.1799 1.4198 6.8588 1.1719 6.8588-0.63486 0-1.0239-1.8961-5.9402-3.2512-8.43-0.7933-1.4577-1.551-3.375-1.6838-4.261-0.70276-4.6875-2.8966-8.4586-5.803-9.9735-0.85638-0.44629-2.3935-1.5637-3.4153-2.4828-1.0216-0.91921-2.7752-2.2944-3.8967-3.0564-2.426-1.6486-2.5106-1.7474-4.0057-4.6459-2.3127-4.4842-1.3642-5.7113 4.5316-5.8643 4.2998-0.11161 6.302-0.43021 8.1624-1.2973 0.82303-0.38363 1.699-0.69703 1.9461-0.69703 0.87077 0 13.672-10.338 13.672-11.042 0-0.13747 0.41402-0.43878 0.92011-0.66942 0.77129-0.35139 0.92002-0.67353 0.92397-1.9913 4e-3 -1.7069 0.74836-4.5149 1.5259-5.76 0.40884-0.65461 0.40132-0.91448-0.0453-1.6087-0.31276-0.4863-0.55847-1.8776-0.59421-3.37-0.0563-2.3412-0.13679-2.5813-1.0275-3.048-0.53181-0.27867-0.9718-0.70883-0.97685-0.9554-0.0118-0.55568-3.2503-3.7306-4.1368-4.0555-0.35726-0.13091-0.80854-0.65653-1.003-1.1678-0.28488-0.74938-0.60236-0.92935-1.6394-0.92935-0.70744 0-2.1608-0.39487-3.2296-0.87719-1.0688-0.48235-2.3157-0.99011-2.7712-1.1287-0.45542-0.13863-0.82812-0.40699-0.82812-0.5958 0-0.18879-0.43975-0.34273-0.97685-0.34273-1.1518 0-4.7858-1.6433-4.9902-2.2566-0.10696-0.32106-0.33781-0.32016-0.94318 4e-3 -0.88567 0.47398-3.3952-0.29574-3.3952-1.0413 0-0.21272-0.7218-0.38641-1.6034-0.38641-2.9836 0-7.1956-5.3267-5.6419-7.1349 1.0767-1.253 0.96627-1.2858 3.5992 1.0635 2.4194 2.1586 4.3453 3.0075 4.8621 2.1432 0.38945-0.65136 8e-3 -1.2253-0.8143-1.2253-0.61909 0-3.6237-2.9986-5.4633-5.4526-0.82445-1.0999-1.0978-2.2766-0.52908-2.2766 0.49999 0 1.9093 1.4689 1.9093 1.9898 0 0.26887 0.62111 0.91316 1.3802 1.4316 0.75912 0.51846 2.1867 1.7 3.1722 2.6255 1.7091 1.605 2.4406 2.0236 2.4406 1.3963 0-0.15741-0.28977-0.55904-0.64407-0.8925-3.3155-3.121-4.0503-5.0188-1.8556-4.7909 2.7466 0.28526 4.5787-1.7725 2.6838-3.0142-0.50609-0.33157-0.92018-0.90101-0.92018-1.2659 0-0.36491-0.41403-1.0528-0.92009-1.5282-0.50609-0.47543-0.92015-1.1354-0.92015-1.4668 0-0.63619-0.6082-1.369-2.5442-3.0648-0.65007-0.56947-1.1167-1.232-1.0367-1.4722 0.35524-1.0671 1.4934-0.51801 4.0019 1.9316 1.4645 1.43 2.7971 2.6002 2.9613 2.6002 0.52305 0 0.3219-0.55181-0.43786-1.2023-0.40482-0.34666-0.73609-0.88473-0.73609-1.1954s-0.41619-0.72296-0.92471-0.91633c-0.50855-0.19333-1.1148-0.76885-1.3473-1.279-0.23243-0.51013-0.54819-0.9278-0.70157-0.9278-0.15345 0-0.65657-0.6211-1.1187-1.3802-0.4622-0.7591-1.7317-2.2372-2.8202-3.2849-3.1525-3.034-2.2983-4.5781 1.4691-2.6561 0.75356 0.38444 1.5522 1.0398 1.7751 1.4561 0.28488 0.53223 0.69739 0.72277 1.3894 0.64254 1.1648-0.13495 1.5675-1.2987 0.55821-1.6141-0.36916-0.1154-1.003-0.39294-1.4078-0.61648-0.40483-0.22355-1.0674-0.58414-1.4722-0.8013-1.4066-0.75446-5.0065-3.6428-5.3575-4.2985-0.19417-0.3628-0.8054-0.87611-1.358-1.141-0.55257-0.26482-1.0628-0.81123-1.1341-1.2146-0.0712-0.40329-1.0441-1.6686-2.1623-2.811l-2.0335-2.0764-0.0498-2.7021c-0.0471-2.5304-0.11154-2.7311-1.016-3.1653-0.60803-0.29194-1.0466-0.86994-1.1847-1.5604-0.15308-0.76536-0.49409-1.1655-1.1295-1.325-0.63725-0.15997-0.94442-0.52171-1.0236-1.2062-0.0841-0.72716-0.34917-1.0072-1.0336-1.095-1.0919-0.14008-1.8403-1.0004-1.8403-2.1155 0-0.44256-0.23766-1.0025-0.5283-1.2437-0.29065-0.24117-0.64292-0.95996-0.78289-1.5972-0.13993-0.63726-0.43864-1.454-0.66402-1.815-0.30575-0.48956-0.29389-0.84164 0.0468-1.3871 0.63112-1.0106 0.57358-1.361-0.25917-1.5788-0.49304-0.12892-0.75069 0.0208-0.82812 0.47924-0.10474 0.62017-2.3416 0.27694-3.0932-0.47464-0.61524-0.61523 0.42051-1.4196 1.5542-1.2069 1.4195 0.26629 1.4353-0.46757 0.0266-1.2498-0.91625-0.5088-2.8652-4.2157-2.8455-5.4119 0.026-1.5927 1.788-1.2149 2.3992 0.51453 0.34141 0.96589 2.3825 2.4613 2.7957 2.0481 0.75528-0.75531-0.38638-2.6613-1.8587-3.1024-2.058-0.61676-3.7096-4.2561-2.3118-5.0944 0.60389-0.36217 0.59728-0.42593-0.10659-1.0298-0.82748-0.71015-3.2758-5.5281-3.6943-7.2698-0.14593-0.6073-0.48873-1.4302-0.76218-1.8296-1.0382-1.516-0.28465-3.3587 0.92551-2.2635 0.85863 0.77706 2.0151 0.66583 2.1838-0.21011 0.0881-0.45761-0.19353-0.64518-1.1003-0.73226-1.0698-0.1027-1.2317-0.25962-1.3311-1.2859-0.0623-0.64283-0.3522-1.3664-0.64413-1.6087-0.72032-0.5978-0.69547-2.8874 0.0346-3.1675 0.31115-0.11943 0.86265 0.0513 1.2253 0.37955 1.4894 1.348 1.9969 0.49749 0.67019-1.1233-1.118-1.3658-2.1903-3.7132-1.9062-4.1728 0.42114-0.68138 1.2705-0.36625 1.5021 0.55669 0.12705 0.50609 0.37772 0.92016 0.55665 0.92016 0.17894 0 0.7748 0.50432 1.3243 1.121 0.69699 0.78231 1.2737 1.0883 1.9069 1.0122 1.3844-0.16641 1.3375-0.91151-0.0736-1.1762-2.3937-0.44913-4.7548-5.2108-3.4612-6.98 0.7192-0.9836 1.739-0.39401 1.739 1.0052 0 0.76167 0.25293 1.3176 0.73613 1.6194 0.40486 0.25283 0.7361 0.65406 0.7361 0.89099 0 0.40131 2.4502 2.8754 2.8478 2.8754 0.0988 0 0.0754-0.53828-0.0522-1.1962-0.31145-1.6052-0.31306-1.8027-0.0239-2.7443 0.20121-0.65519 0.0753-0.85439-0.65405-1.0375-1.7938-0.4503-2.6906-15.391-1.026-17.094 1.2961-1.3258 1.6453-2.3346 1.1364-3.2856-0.56485-1.0554-0.47626-2.2754 0.22083-3.0456 1.2778-1.4123 6.2524-0.40545 7.0912 1.4354 0.23506 0.51594 0.83429 1.2587 1.3318 1.6501 1.1939 0.93928 1.1883 2.4715-0.0138 3.6008-0.50528 0.47468-0.84538 0.93661-0.75527 1.0267 0.0901 0.0901-0.27946 1.0119-0.82122 2.0481-1.7909 3.4249-1.2614 5.625 1.2291 5.1075 1.2725-0.26433 1.4695-0.4492 1.6739-1.5719 0.41386-2.2732 1.3667-3.9076 3.5579-6.1066 1.1828-1.1871 2.2571-2.4409 2.3869-2.7857 1.6886-4.482 6.2658-2.3068 6.7822 3.2228 0.15113 1.6189 0.43294 2.5464 0.90323 2.972 0.54567 0.4938 0.68398 1.1541 0.68398 3.2672 0 4.7232 3.0142 7.4127 5.1182 4.5669 0.58581-0.79239 0.7604-1.3769 0.57661-1.9323-1.9576-5.9155 1.2747-14.429 3.8477-10.135 0.69814 1.1651 1.7152 2.5537 3.0203 4.1237 1.4274 1.7171 2.2423 3.9005 1.9806 5.3069-0.2511 1.3501 0.048 1.4728 1.6148 0.6625 1.3978-0.72277 2.1954-4.153 1.5827-6.8075-0.24561-1.0635-0.32045-3.2893-0.18864-5.6166l0.21854-3.8554-1.3403-2.2865c-2.2513-3.8415-1.7022-7.2338 2.1554-13.319 1.1161-1.7605 2.2785-3.9083 2.5833-4.7724s1.0158-2.3315 1.5803-3.2611c1.9578-3.2236 4.5546-9.6086 5.2194-12.834 0.26199-1.271 0.95541-3.0666 1.5412-3.9903 1.4035-2.213 2.2283-5.3913 1.9484-7.5083-0.16215-1.226-0.0263-2.1161 0.51597-3.3815 3.4741-8.1046-0.81245-15.005-10.331-16.631-1.7598-0.30053-3.6112-0.8166-4.1145-1.1463-0.84575-0.55206-0.98501-0.55203-1.8333 4e-3 -1.4197 0.93025-3.6474 0.61741-3.9206-0.55054-0.24928-1.0667-5.1808-1.44-6.1886-0.46851-0.64798 0.6247-1.5666 0.59208-2.5411-0.0905-0.55049-0.3856-1.2366-0.48958-2.2075-0.33431-1.0658 0.17039-1.6083 0.0596-2.226-0.45317-1.3548-1.1247-0.54937-1.5632 3.4267-1.8686 3.1774-0.24411 3.6746-0.37322 3.7909-0.98072 0.12756-0.66606-0.0468-0.68493-3.6759-0.39642-5.423 0.43111-5.7446 0.39962-6.8772-0.6855-0.5543-0.53105-1.5362-1.0716-2.1823-1.2008-0.64605-0.1292-1.3462-0.44067-1.555-0.6924-0.25933-0.31246-0.83695-0.37408-1.8219-0.19399-0.79344 0.14384-1.6343 0.14439-1.8679 0-0.23361-0.1444-1.538-0.18321-2.8984-0.0859-2.0278 0.14511-2.7493 0.0363-4.0034-0.60345-0.84134-0.42922-1.9298-0.77981-2.4191-0.77981-0.48937 0-1.0887-0.23977-1.3319-0.53291-0.26739-0.32208-1.0498-0.51922-1.9775-0.49841-2.4804 0.0558-6.9812-0.79332-7.976-1.5044-0.5612-0.40115-1.9518-0.75282-3.5655-0.90173-3.3547-0.3096-4.5309-0.74971-4.5309-1.6938 0-0.84517-0.42333-1.1-3.6438-2.1991-5.1879-1.7702-7.492-4.8655-6.5483-8.7957 0.55814-2.3241 1.0653-5.3752 1.5597-9.3823 0.2921-2.3676 2.7626-4.0119 5.1336-3.4168 1.6624 0.41732 3.6026 4.991 2.7182 6.4072-0.33949 0.54358-0.20411 0.88125 0.76984 1.9269 2.2063 2.369 2.8155 3.1068 3.8301 4.6359 1.6591 2.5006 4.3466 4.5462 5.9732 4.5462 0.75898 0 1.9291 0.19827 2.6002 0.4409 1.4506 0.52461 1.9681 0.42632 10.466-1.9913 0.93333-0.26547 1.9402-0.68496 2.2375-0.93163 0.29719-0.2467 1.65-0.86608 3.0057-1.3764 3.2221-1.2127 6.9836-4.8936 6.6902-6.5468-0.12308-0.69347 0.0435-1.2442 0.51991-1.7207 0.9211-0.92111 1.3354-1.7666 1.6324-3.3286 0.13433-0.70611 0.71597-2.1967 1.292-3.3125 1.9424-3.7626 2.8376-13.619 1.6623-18.305-0.72201-2.879-0.58842-3.2526 1.4868-4.1421 0.90906-0.38968 2.3616-1.3501 3.2281-2.1347 0.86645-0.78459 2.5782-2.0267 3.8032-2.7604 1.225-0.73371 2.5479-1.6885 2.9399-2.1217 0.39198-0.43314 1.7082-1.3687 2.9253-2.0795 2.5734-1.5032 8.4973-7.4357 10.403-10.418 0.71132-1.1133 1.9918-3.1008 2.8455-4.4166 2.1173-3.2632 2.7906-4.6341 3.3416-6.8006 1.9732-7.7589 1.9775-7.5543-0.14876-7.5543-0.19865 0-0.36279-0.0089-0.51145-0.0092zm-39.718 21.309c1.6803 0.05022 0.63783 1.6716-2.8961 2.9851-3.3912 1.2605-4.5827 1.8522-7.2399 3.5954-0.69723 0.45737-1.8797 1.1438-2.627 1.5259-1.3462 0.68821-6.1142 5.2757-7.312 7.0344-0.34219 0.50247-1.4757 1.846-2.5189 2.9858-1.1296 1.2342-2.3154 3.0576-2.9321 4.5087-1.519 3.5743-3.7724 3.2199-2.8271-0.44473 2.3516-9.1175 11.414-16.734 25.757-21.648 1.1736-0.40199 2.0363-0.55962 2.5963-0.54288zm-47.753 26.928c1.1949 0.01133-0.37472 2.718-2.5281 3.8094-4.3235 2.1914-5.6088 4.0789-5.6182 8.2513-7e-3 3.2695-0.48951 4.0478-1.302 2.1033-0.81454-1.9492-0.44751-6.3605 0.64413-7.7483 0.90266-1.1475 0.95929-1.0921-1.5451-1.5014-3.2262-0.52717-2.9222-1.6934 0.55211-2.1178 1.417-0.1731 3.4045-0.60897 4.4166-0.96844 1.0121-0.35946 2.3371-0.81817 2.9444-1.0198 0.60729-0.20163 1.394-0.48789 1.7482-0.63566 0.28991-0.12095 0.51711-0.17414 0.68782-0.17252zm2.8409 3.37c0.59108 0.05277 0.90701 1.2121 0.9393 3.475l0.0414 2.8915-1.7789 2.2083c-2.3192 2.8788-3.0666 3.4957-4.2426 3.5011-0.53424 2e-3 -1.6692 0.40264-2.5219 0.89023-4.1425 2.3687-4.2823-0.0248-0.16795-2.8762 1.4149-0.98069 3.0773-3.2784 5.53-7.6432 0.94327-1.6786 1.6792-2.4933 2.2007-2.4468zm30.911 0.90557c0.65276-0.03836 1.4699 0.56809 2.3073 1.8725 1.3462 2.0969 1.2926 3.7628-0.19249 6.0069-1.9656 2.9703-3.4906 0.95357-3.5134-4.6451-8e-3 -2.0696 0.55935-3.185 1.3986-3.2343zm-37.457 3.6092c0.68887 0.0175 1.1605 0.5778 0.67397 1.164-0.65641 0.79091-2.1676 0.59543-2.1676-0.28064 0-0.16158 0.34205-0.47723 0.75989-0.70083 0.25026-0.13396 0.50417-0.18834 0.73377-0.1825zm-12.432 2.7957c0.13693-0.0391 0.29629 0.5154 0.46162 1.7245 0.13148 0.96153 0.37894 2.2941 0.54978 2.9613 0.19032 0.74332 0.15892 1.6464-0.0805 2.3333-0.21426 0.61649-0.31096 2.1409-0.21392 3.3876 0.0969 1.2467 0.10459 2.4744 0.0169 2.7274-0.54023 1.559-1.6489 0.40849-1.4185-1.4722 0.13013-1.0627 0.25216-4.1268 0.27062-6.809 0.0213-3.0747 0.18592-4.7878 0.4141-4.8529zm3.7243 26.79c0.11833-0.0297 0.21046 0.0409 0.29746 0.1963 0.3484 0.62225-2.2426 4.7757-3.2112 5.1474v1e-3c-1.7455 0.66976-1.7993-1.0794-0.0667-2.1684 0.65007-0.40865 1.5862-1.3668 2.0802-2.1293 0.43405-0.66993 0.70292-0.99713 0.90026-1.0466zm4.8874 1.6908c0.31421 3e-3 0.5989 0.0639 0.83345 0.18939 1.2052 0.64498 0.90131 1.2922-1.0122 2.157-3.1151 1.4079-4.8248 0.83849-2.903-0.96691 0.92905-0.87285 2.1391-1.3882 3.0817-1.3794zm-12.62 2.0435c1.2877 0 2.3093 0.78529 1.8947 1.4561-0.40268 0.65158-2.3104 0.31816-2.8562-0.49917-0.49921-0.74753-0.28874-0.95694 0.96151-0.95694zm69.745 4.4166c0.57745 0 2.2559 1.2432 2.2559 1.6708 0 0.42722-2.5358 0.11017-2.9314-0.36651-0.54064-0.65143-0.20229-1.3043 0.67549-1.3043zm14.16 27.052c1.4193 0.0273 2.5353 0.13616 2.7251 0.28447 0.97554 0.76241 0.0664 5.4248-1.2506 6.4149-0.43533 0.32727-0.52416 0.77229-0.3458 1.723 0.19451 1.037 0.085 1.4258-0.57051 2.0366-0.69743 0.64977-0.75069 0.88406-0.38487 1.6869 0.33747 0.74078 0.30656 1.229-0.15035 2.3709-0.43978 1.0991-0.47922 1.6158-0.16868 2.196 0.34003 0.63537 0.25475 0.89043-0.52369 1.5673-1.1636 1.0117-1.1655 1.3207-0.01 1.8472 1.8724 0.85349-0.8023 10.29-2.9897 10.547-0.58231 0.0685-1.2412 0.27533-1.4638 0.4593-0.22248 0.18396-1.299 0.51699-2.3923 0.73994-1.0933 0.22295-2.7286 0.55664-3.6346 0.74147-1.0518 0.21467-2.9614 1.2324-5.2854 2.8164-5.4216 3.6954-5.5342 3.7617-6.1611 3.7656-0.31893 1e-3 -0.96839 0.41634-1.4438 0.92243-0.47542 0.50609-1.1465 0.92014-1.4913 0.92014s-0.83301 0.24844-1.085 0.55207c-2.208 2.6606-2.5464-1.9858-0.42859-5.8835 0.4383-0.8067 0.7967-1.6667 0.7967-1.9108 0-0.8017 0.69801-0.89661 1.7107-0.23309l0.99603 0.65252-0.29675-0.91323c-0.66459-2.0458-0.83008-6.7658-0.28063-8.0006 0.40539-0.91105 0.43176-1.3212 0.11043-1.7084-0.50215-0.60499-0.53026-1.1366-0.39569-7.5075 0.0928-4.3922 0.17836-4.9457 0.83197-5.4035 0.58291-0.40833 0.68044-0.76292 0.48997-1.7782-0.50814-2.7089 1.4268-4.8449 3.4858-3.8477 1.7274 0.83661 3.9348 0.24744 9.4605-2.5265l4.8867-2.4537 3.7626-0.0767c0.51735-0.0105 1.0244-0.01 1.4975-1e-3zm-29.442 114.64c0.33612 0.0224 0.60881 0.41674 0.60881 1.1157 0 0.84282-0.16697 1.1042-0.70542 1.1042-0.84906 0-1.1567-0.68381-0.70394-1.5642 0.23941-0.46545 0.53913-0.67298 0.80055-0.65559zm-41.884 35.029c0.0931-4e-3 0.19427 4e-3 0.3044 0.0192 0.81812 0.11696 2.9736 3.7715 2.5917 4.3936-0.30559 0.49385-0.61528 0.37729-1.8648-0.70318-1.9343-1.6726-2.4285-3.6732-1.0313-3.7097zm52.901 33.804c0.6404-0.024 1.2196 0.42281 1.3702 1.292 0.18331 1.0579 0.26145 1.0992 1.851 0.98609 1.8358-0.13069 4.3628 1.0289 5.3667 2.4621 0.44143 0.63025 0.69285 0.71144 1.2613 0.40716 0.97365-0.52101 5.2932-0.0453 7.2821 0.80208 0.87711 0.37368 2.2603 0.67936 3.0733 0.67936 3.4637 0 8.8094 5.7878 6.4915 7.0283-0.78599 0.42067-0.78788 0.44072-0.092 0.94931 1.6957 1.2394 0.48792 7.3618-1.4906 7.5558-0.82532 0.081-1.1407 0.31913-1.2268 0.92474-0.24692 1.7373-3.5536 3.5772-4.9082 2.7313-0.5876-0.36693-0.68088-0.30963-0.68088 0.41787 0 1.0878-1.5316 1.7486-4.9687 2.144-1.4169 0.16305-3.653 0.44925-4.9688 0.63638-1.3158 0.18719-2.972 0.45364-3.6805 0.59198-1.3786 0.26921-2.2084-0.20587-2.2084-1.2644 0-0.32389-0.19064-0.78029-0.42404-1.0137-0.81191-0.81187-2.5188-5.8054-2.5188-7.3748 0-1.0953-0.23654-1.8289-0.76913-2.3924-0.63355-0.67026-0.74095-1.1562-0.61187-2.7719 0.11586-1.4505-0.0324-2.3415-0.57048-3.4298-0.63918-1.2919-0.67204-1.6385-0.26766-2.8639 0.33764-1.023 0.35383-1.593 0.0606-2.1408-0.47423-0.88609 0.18767-3.883 1.1985-5.4257 0.39933-0.60954 0.93424-0.91243 1.4324-0.93088z" stroke-width=".39259"/><path d="m319.85 10.242c-26.483 0.34626-46.888 4.6628-47.205 13.783 1e-3 6.264 15.328 14.706 47.205 13.783v-7.8874c-21.274-0.25187-33.787-3.3175-33.786-7.0146 8.9e-4 -3.6969 12.514-4.7621 33.786-5.014z" fill="#fff" stroke-width=".52861"/><path d="m525.67 234.01 4.626 8.0225c8.8913 15.552 11.561 27.072 11.419 49.248-0.11651 18.148-0.88122 22.806-6.3244 39-5.5166 16.412-6.0952 20.046-5.3288 33.729l0.81982 15.342-3.7478-8.4324c-4.2788-9.5163-4.6967-19.818-2.2252-55.69l1.5811-22.897-5.7973-11.77c-5.9334-12.045-20.829-28.977-18.388-20.906 1.7578 5.811-3.2187 18.716-15.167 39.411-14.846 25.715-18.005 35.763-16.982 53.114 1.2369 20.984 11.788 40.111 30.158 54.636 6.0041 4.7471 10.989 7.2028 14.757 7.2028h5.6802l-7.9054-8.6081c-10.93-11.857-17.237-26.488-18.388-42.573-0.68407-9.5609-0.33579-12.738 1.2297-11.77 1.1801 0.72935 2.1081 2.849 2.1081 4.6846 0 5.3188 10.499 24.846 18.153 33.788 3.8588 4.508 12.02 11.866 18.095 16.338 10.54 7.7592 11.599 8.1398 24.068 8.1396 7.1871 0 12.749-0.63242 12.356-1.4054-11.232-22.095-11.778-23.906-11.712-38.883 0.0616-13.845 0.77947-16.425 8.8424-33.729 10.02-21.505 12.526-31.045 12.59-47.022 0.0933-23.167-10.926-40.583-32.148-50.829-6.5067-3.1418-14.2-6.2937-17.099-6.9686l-5.2702-1.1712zm78.175 61.018-1.4639 8.4324c-2.0711 11.997-4.6487 17.698-15.518 34.667-5.2814 8.2451-10.683 17.763-12.063 21.14-3.9082 9.5607-1.7372 29.11 4.6846 42.104l5.3288 10.833 2.3423-8.0811c1.8019-6.1796 5.8266-11.419 17.216-22.252 16.518-15.711 18.955-20.844 18.973-40.171 0.013-14.176-3.7601-25.219-12.649-37.302l-6.8515-9.3694z" stroke-width=".22876"/></svg>
