<?xml version="1.0" encoding="UTF-8"?>
<svg width="842.35" height="785.28" enable-background="new -0.0469 133.5322 1920.0938 991.6411" version="1.1" viewBox="-.0469 133.53 842.35 785.28" xml:space="preserve" xmlns="http://www.w3.org/2000/svg" xmlns:cc="http://creativecommons.org/ns#" xmlns:dc="http://purl.org/dc/elements/1.1/" xmlns:rdf="http://www.w3.org/1999/02/22-rdf-syntax-ns#"><metadata><rdf:RDF><cc:Work rdf:about=""><dc:format>image/svg+xml</dc:format><dc:type rdf:resource="http://purl.org/dc/dcmitype/StillImage"/><dc:title/></cc:Work></rdf:RDF></metadata><g fill="#fff" stroke="#000" stroke-width=".077955">
<path d="m379.18 218.53c8.585-3.1747 17.818-3.665 26.844-4.5543 15.749-1.4211 31.897-0.0831 46.814 5.3687 19.181 7.0807 39.675 8.8426 59.563 12.948 21.658 4.895 43.324 9.79 65.073 14.278 25.472 4.7953 50.538 11.444 75.694 17.619 19.547 3.6235 39.443-0.19946 58.682-3.8728 9.1834-1.845 17.627-6.017 25.846-10.38 1.8284 3.7398 2.2355 7.9368 3.2994 11.918 1.579 6.258 2.651 12.649 4.5543 18.824 5.3189 13.871 10.887 27.658 15.317 41.853 3.5154 10.812 7.5794 21.467 9.9562 32.62 3.6899 16.605 9.5823 32.586 14.294 48.9 8.9174 39.301 17.752 78.62 26.669 117.92 0.19123 1.5874 1.1386 3.2412 0.68156 4.8368-5.3272 2.8257-9.8981 6.8564-13.488 11.693-4.3134 5.9089-10.347 10.156-15.574 15.167-6.3245 5.9256-13.006 11.46-20.037 16.53-4.5378 3.2911-8.261 8.5268-14.037 9.5573-4.1554-3.1165-7.4132-7.2719-11.17-10.829-11.386-11.627-22.605-23.386-33.808-35.179-5.0696-5.161-9.8233-10.671-15.408-15.308-13.064-11.053-28.365-18.89-42.867-27.808-24.284-15.308-47.529-32.171-70.982-48.693-29.245-20.494-59.064-40.149-88.767-59.979-13.197-8.6681-25.946-17.993-39.335-26.353-15.358-9.5823-31.506-18.375-49.083-23.079-11.012-2.9004-22.647-4.0058-33.908-2.0112-11.444 2.1691-22.647 5.5017-33.509 9.6654-38.595 14.727-72.096 39.684-109.73 56.422-14.245 6.4408-28.896 11.959-43.723 16.887-4.3382 1.0305-8.8509 9e-3 -13.123-0.88094-4.2135-1.1136-8.8759-2.1026-11.893-5.51-2.4683-2.5431-5.0363-5.0363-6.9727-8.0199-2.3935-3.69-2.2605-8.2609-2.4267-12.474-0.0166-2.6927-0.37397-5.6181 1.1469-8.0032 2.5182-4.2551 6.2663-7.596 10.023-10.737 6.6818-5.3937 13.896-10.081 21.192-14.594 6.5655-4.1221 13.463-7.8703 19.098-13.289 20.228-19.223 28.448-47.587 48.676-66.818 7.3882-6.8314 16.946-10.696 26.536-13.272 22.996-6.2663 46.149-12.35 68.156-21.641 14.103-6.1582 27.201-14.511 41.728-19.721z"/><path d="m101.99 331.11c2.2855-7.0475 2.9836-14.569 5.5017-21.541 10.887 3.3742 22.281 4.5958 33.559 5.8591 19.863 2.2107 39.933 1.9364 59.796-0.0748-3.8146 6.4159-8.585 12.275-13.995 17.403-4.9449 4.7205-11.028 7.9118-16.746 11.544-9.4161 5.8923-18.882 11.876-27.06 19.447-5.1859 4.9698-10.604 11.053-10.588 18.674 0.0831 6.8813-0.28257 14.211 3.0251 20.494 2.5763 4.6789 6.4242 8.4686 10.156 12.225 4.2136 4.3548 10.33 5.9172 16.015 7.3799 6.3909 1.3048 13.272 2.7592 19.58 0.32411 19.364-6.5322 38.462-13.962 56.746-23.137 34.647-17.187 66.611-40.024 103.43-52.673 4.0224-1.1635 7.9534-3.1581 12.25-2.9836 10.247 0.0332 20.985-2.1857 30.8 1.82 19.422 6.6818 38.637 14.727 55.225 27.043 28.589 21.342 60.087 38.254 90.678 56.471 25.655 15.159 49.873 32.553 74.522 49.249 16.347 11.153 32.794 22.165 49.565 32.686 13.621 8.2609 26.736 17.386 39.102 27.467 10.513 8.2443 18.932 18.716 28.381 28.09 11.751 11.377 18.533 26.677 23.76 41.919 2.2522 7.97 2.2688 16.356 2.1774 24.575-0.15799 8.1694-3.532 15.765-7.3218 22.846-3.8644 7.8453-9.2665 15.034-16.148 20.486-2.5515 1.8782-5.668 4.1304-9.0005 3.0167-16.53-3.9227-32.761-9.3579-48.053-16.788-26.478-14.245-46.897-36.941-71.481-53.895-15.466-10.929-31.813-20.528-48.235-29.927-3.9226-2.0777-7.5628-4.7288-11.693-6.366-1.338 2.6345-2.8672 5.161-4.3548 7.7124-3.0584-1.0306-7.1141 2.1192-5.6763 5.3022 3.5903 2.8755 7.5462 5.2607 11.269 7.9783 3.2329 1.9863 5.6181 5.1111 9.175 6.607 9.441 6.4574 18.84 13.04 28.946 18.442 3.4157 1.7536 6.74 3.9393 10.638 4.4379 9.0421 8.6348 17.552 17.86 27.093 25.971 1.6122 1.2217 2.676 2.942 3.557 4.7371 4.3132 8.4271 10.596 15.616 15.2 23.868 3.075 5.4934 5.7012 11.494 5.9588 17.885 0.13297 10.937-0.24102 22.14-4.064 32.528-2.0611 5.3521-3.8728 10.987-7.6625 15.425-5.003 6.0004-11.585 10.48-18.475 14.053-1.7121 0.83937-3.4157 1.82-5.3189 2.1026-15.691 0.88094-31.689-2.0528-45.792-9.0753-16.164-7.8453-29.603-20.07-42.41-32.445-20.361-19.539-39.925-40.598-64.591-54.834-1.7203 2.9337-3.4656 5.8508-5.0114 8.8842 14.801 8.4686 27.658 19.838 40.016 31.481 11.652 11.062 22.888 22.564 34.839 33.309 11.519 10.322 24.276 19.63 38.72 25.389 0.47363 3.9558 1.23 8.1528 0.29087 12.067-2.809 4.8119-3.7814 10.33-5.4851 15.566-1.5873 4.1388-5.028 7.1224-7.9701 10.289-2.435 2.6678-6.0584 3.6401-9.3496 4.7787-7.7706 2.244-15.666 5.6347-23.927 4.3465-4.5958-0.83107-9.1917-1.7036-13.721-2.8256-9.1002-3.3077-17.71-7.8287-26.752-11.278-3.8894-1.3297-6.9229-4.1885-10.172-6.5655-13.231-10.272-25.356-21.882-38.803-31.872-7.4381-5.5848-14.851-11.219-22.406-16.646-9.3828-5.4602-20.669-5.3189-31.124-6.873-0.56513 3.3409-1.2798 6.6652-1.5042 10.056 8.9423 1.4045 18.442 1.1967 26.761 5.1526 12.25 9.0338 24.633 17.935 36.285 27.741 9.6155 8.1944 19.073 16.597 29.279 24.068 0.19954 7.4962-2.3686 14.801-5.0944 21.683-3.2163 2.2854-7.2054 3.2495-10.696 5.0695-8.4686 4.4545-18.466 5.4519-27.841 4.1138-6.125-0.72303-10.654-5.2025-15.707-8.2525-6.6153-4.1637-12.79-9.067-19.721-12.69-4.4047-2.3104-9.3496-0.59005-13.272 1.8284-16.779-15.217-27.766-35.404-42.692-52.241-1.9364-1.9198-1.4461-5.3106-4.1969-6.5905-6.1001-0.86432-12.325-1.3713-18.458-0.6981-2.0611 0.50694-4.1055-0.14129-6.125-0.44878-3.6235-0.63162-7.3051-0.79783-10.962-1.097 2.5763-4.8867 5.0031-9.9646 5.7427-15.491 1.205-8.9174 0.79783-18.234-2.3354-26.736-1.338-3.7149-3.1415-7.2303-5.0114-10.696-2.7093-4.8785-5.0612-10.156-9.4493-13.804-7.089-6.1084-15.716-11.377-25.331-11.635-6.1998-0.32411-12.574-0.66486-18.616 1.0721-3.3991 0.89756-6.6154 2.3187-9.8482 3.665-3.4241-9.4825-7.5877-18.84-13.804-26.86-6.5239-8.4852-15.649-15.408-26.295-17.569-9.5324-1.7868-19.322 0.27425-28.406 3.2495-5.7843 2.1442-11.851 4.1138-16.663 8.1279-3.1332 2.568-5.3023 6.0419-7.6292 9.2997-17.444-14.968-35.794-29.777-57.668-37.689-3.4739-1.4876-7.729-1.6206-10.239-4.7704-2.2106-0.32413-3.8645 1.6621-5.4269 2.9254-2.7508 2.4932-4.4296 5.8923-5.643 9.3579-5.3438 1.8699-10.646 3.8728-16.006 5.6762-0.55682-1.8865-0.80614-3.8396-0.615-5.7843 0.66486-12.799 1.1884-25.597 1.8284-38.396 0.11642-2.9752 1.0222-5.8341 1.6372-8.7263 8.6432-38.221 17.278-76.45 25.913-114.67 2.2107-10.987 6.1998-21.483 9.3579-32.204 3.2994-9.6404 5.4269-19.605 7.9617-29.453 1.6206-7.089 4.28-13.871 6.4989-20.785 3.3243-9.6654 6.2248-19.48 10.023-28.971 2.4438-6.4076 4.937-12.799 7.3887-19.206z"/><path d="m60.872 662.58c-2.3686-12.79-1.0388-25.863-0.68149-38.761 22.904 6.7566 41.828 22.048 59.663 37.315 3.4406 2.6594 6.3826 5.9837 10.122 8.2442 2.8422-4.9864 5.4518-10.156 8.9423-14.743 2.7508-3.6319 7.1306-5.3604 11.228-6.9893 8.6099-3.3077 17.918-5.9422 27.218-4.5958 9.0172 1.7701 16.455 8.0947 21.674 15.416 7.1805 9.9812 11.153 21.791 14.303 33.559 8.0531-3.5321 15.757-8.7346 24.774-9.2748 4.8618-0.13298 9.7984-0.0665 14.569 0.96404 5.2358 1.712 10.014 4.7122 14.12 8.3689 3.3077 2.7591 4.8451 6.8979 6.9561 10.53 3.4074 6.0835 6.4159 12.624 6.848 19.696 0.57345 7.2469 0.12467 14.934-3.6152 21.367-3.291 6.0087-7.2719 11.602-10.663 17.552 9.1667 0.0748 18.4-0.27425 27.5 1.0472 9.6238 1.471 18.35 6.0502 26.711 10.796 2.6262 0.71472 3.9227 3.2079 5.5099 5.1942 10.098 13.306 19.372 27.4 31.456 39.052-14.402 7.9035-31.057 14.037-47.72 11.311-3.6734-0.59006-7.4381-0.70641-11.053-1.5375-5.2274-4.0889-7.33-10.787-11.685-15.657-4.4545-5.003-9.8482-9.067-15.292-12.932-6.1333-4.0722-12.441-8.2359-19.622-10.189-10.28-2.3104-20.81-3.8229-30.692-7.6293-2.9668-1.2217-6.1582-2.543-8.0282-5.2939-3.8146-5.3022-8.4852-9.9895-11.768-15.674-3.0584-5.2607-2.6096-11.585-2.7924-17.436 0.0416-5.0446-0.63162-10.048-0.94742-15.067-7.5296 3.1497-13.148 9.5407-20.062 13.771-1.8533 1.0222-3.931 2.219-6.125 1.6289-5.51-1.0222-11.053-1.9946-16.372-3.7564-7.5295-2.3769-13.962-7.1057-20.752-10.97-3.3077-1.7702-5.6264-5.003-6.1832-8.718-2.4434-14.27-3.5653-28.772-3.4322-43.257-8.9257 2.9088-17.61 8.2692-27.326 7.1472-10.887-1.3214-21.034-5.8258-30.916-10.347-3.8893-1.7536-4.9531-6.3743-5.8673-10.131z"/>
	
	</g><path d="m400.36 204.75c16.464-2.2023 33.476-1.4627 49.416 3.4656 5.884 1.8616 11.735 3.8645 17.694 5.5017 18.333 4.6457 37.24 6.4325 55.582 11.003 16.563 3.6983 33.135 7.355 49.723 10.954 10.538 2.1359 21.109 4.1221 31.597 6.5489 16.572 3.6152 32.91 8.2193 49.416 12.117 18.508 3.931 37.265-0.31582 55.566-3.3243 7.355-1.5126 14.195-4.787 20.852-8.1778 5.642-3.2685 9.4749-3.7728 15.545-6.056 24.853 77.866 71.454 221.12 76.511 297.06-9.5041 5.6688-16.771 13.639-20.094 16.963-5.7926 5.2856-11.71 10.438-17.453 15.782-6.6237 5.9089-14.103 10.762-20.685 16.738-3.8063 3.6068-8.6182 5.7012-13.38 7.704 2.4101 8.2193 6.0585 16.023 8.4188 24.267 2.5182 8.2359 4.4296 17.012 2.7093 25.614-1.3463 8.0032-6.0502 14.801-9.8233 21.807-3.8229 6.2912-7.2884 12.915-12.4 18.284-4.2717 4.4379-8.8759 8.8925-14.801 10.978-8.6432 3.6235-18.333 2.0196-27.068-0.38229-21.234-5.8341-39.235-19.206-56.446-32.395-1.0388-0.68979-2.1192-1.2799-3.1746-1.8699 2.3186 4.2468 5.6512 7.9034 7.5046 12.416 2.4017 5.8757 3.4905 12.175 4.1387 18.466 1.5458 15.799 1.978 32.42-4.4047 47.313-3.3741 8.6265-9.4576 15.815-15.865 22.356-6.0087 5.5266-13.006 10.945-21.384 11.884-4.8369 0.73965-9.4992 2.3437-14.361 2.9088-7.7457 1.0306-15.915 1.014-23.071 4.5128-2.2522 0.93911-2.219 3.6817-2.7342 5.7012-0.88916 5.9172-3.424 11.46-6.6984 16.43-3.8312 6.0751-10.131 9.8565-15.259 14.693-7.1971 6.5737-17.245 9.1086-26.81 8.693-7.8038-0.67326-15.408-2.7259-22.771-5.3439-7.5129-2.0611-15.192-3.7149-22.223-7.2053-3.9476 5.0279-2.3354 13.098-8.0697 17.029-4.8618 3.2246-7.1389 8.8676-11.527 12.599-4.2052 4.3549-10.181 6.4243-16.09 7.0559-8.4437 1.0554-17.212 3.2494-25.614 0.83108-7.1057-2.7093-14.062-5.801-21.001-8.9008-6.0419-2.7425-12.283-5.1028-17.935-8.6099-2.6345-1.5125-4.9864-3.5238-7.8038-4.6789-2.086 0.27426-3.906 1.4211-5.7593 2.3187-15.084 7.5046-31.789 13.455-48.9 11.427-6.4076-1.0555-13.405-0.59838-19.206-3.9061-5.7261-4.1304-8.3024-11.062-12.657-16.405-4.0556-4.8535-9.1917-8.6265-14.294-12.292-5.8591-4.0142-12.167-7.7706-19.239-9.092-9.2-1.7702-18.417-3.6484-27.268-6.7732-4.0141-1.4544-8.0697-3.2162-11.153-6.2496-2.6761-2.6512-4.6374-5.8924-7.0226-8.7678-3.931-4.8202-8.1694-9.6488-10.106-15.674-1.4959-4.172-1.0306-8.7678-2.6678-12.898-5.1859 2.8589-10.563 6.7732-16.829 5.7261-10.879-1.7453-22.082-3.9559-31.498-9.9978-5.6596-3.6816-12.109-6.4242-16.63-11.61-3.5653-3.9725-4.7869-9.3911-5.4102-14.544-0.88925-8.4022-2.0528-16.788-2.4517-25.24-4.5709 0.2244-8.9174 1.9696-13.505 1.9696-11.087 0.25763-21.616-3.906-31.714-8.0115-4.4296-2.0195-9.3745-3.4905-12.832-7.0808-4.413-5.2108-6.1666-12.075-7.006-18.707-0.93079-8.2027 0.0249-16.472-0.5485-24.691-4.0556 0.26594-7.8703 1.7702-11.61 3.2578-4.8806 0.83247-9.9634-2.1183-17.775-2.6514 1.3962-5.6596 3.3611-22.343 3.8541-34.546-0.22099-29.329 13.356-116.85 38.138-181.87 4.2887-19.308 7.3917-30.347 12.758-45.147 1.604-3.4822 11.04-37.351 13.093-40.575 6.7899-10.438 5.402-27.415 12.233-37.829 26.005 11.855 51.791 11.631 77.46 11.203 8.8509-0.5402 17.685-1.3214 26.536-1.8367 3.5986 0.0333 5.5349-3.3908 7.1057-6.1084 3.1913-6.0336 7.2137-11.56 11.07-17.17 7.4796-11.469 17.577-21.633 30.409-26.902 14.86-6.1499 30.858-8.7512 46.1-13.738 15.45-4.6124 30.741-9.9812 45.169-17.253 12.242-6.4159 24.525-13.098 37.922-16.821 6.0168-1.7368 12.333-1.5041 18.508-2.252m-21.176 13.779c-14.527 5.2108-27.625 13.563-41.728 19.721-22.007 9.2914-45.161 15.375-68.156 21.641-9.5906 2.5763-19.148 6.4408-26.536 13.272-20.228 19.231-28.448 47.596-48.676 66.818-5.6347 5.4186-12.533 9.1667-19.098 13.289-7.2968 4.5128-14.511 9.2-21.192 14.594-3.7564 3.1415-7.5046 6.4824-10.023 10.737-1.5209 2.3852-1.1635 5.3106-1.1469 8.0032 0.16622 4.2136 0.0332 8.7844 2.4267 12.474 1.9364 2.9836 4.5044 5.4768 6.9727 8.0198 3.0168 3.4074 7.6791 4.3964 11.893 5.51 4.2717 0.88926 8.7844 1.9115 13.123 0.88095 14.826-4.9283 29.478-10.447 43.723-16.887 37.639-16.738 71.14-41.695 109.73-56.422 10.862-4.1637 22.065-7.4963 33.509-9.6654 11.261-1.9946 22.896-0.88925 33.908 2.0112 17.577 4.7039 33.725 13.497 49.083 23.079 13.389 8.3606 26.137 17.685 39.335 26.353 29.703 19.829 59.521 39.484 88.767 59.979 23.453 16.522 46.698 33.384 70.982 48.693 14.502 8.9174 29.802 16.754 42.867 27.808 5.5848 4.6374 10.339 10.147 15.408 15.308 11.203 11.793 22.422 23.553 33.808 35.179 3.7564 3.557 7.0143 7.7124 11.17 10.829 5.776-1.0305 9.4992-6.2663 14.037-9.5573 7.0309-5.0696 13.713-10.605 20.037-16.53 5.2274-5.0114 11.261-9.2582 15.574-15.167 3.5902-4.8368 8.161-8.8676 13.488-11.693 0.45709-1.5957-0.49034-3.2495-0.68156-4.8368-8.9174-39.301-17.752-78.62-26.669-117.92-4.7121-16.314-10.604-32.295-14.294-48.9-2.3769-11.153-6.4408-21.807-9.9563-32.62-4.4297-14.195-9.9978-27.982-15.317-41.853-1.9032-6.1749-2.9752-12.566-4.5543-18.824-1.0638-3.9808-1.471-8.1778-3.2994-11.918-8.2193 4.3631-16.663 8.5351-25.846 10.38-19.239 3.6733-39.135 7.4963-58.682 3.8728-25.157-6.1749-50.222-12.823-75.694-17.619-21.749-4.4878-43.415-9.3828-65.073-14.278-19.888-4.1055-40.382-5.8674-59.563-12.948-14.918-5.4518-31.066-6.7899-46.814-5.3687-9.0254 0.88917-18.259 1.3795-26.844 4.5542m-277.2 112.59c-2.4517 6.4076-4.9449 12.799-7.3883 19.206-3.7979 9.4908-6.6984 19.306-10.023 28.971-2.219 6.9145-4.8784 13.696-6.4989 20.785-2.5348 9.8482-4.6623 19.813-7.9617 29.453-3.1581 10.721-7.1472 21.217-9.3579 32.204-8.6349 38.221-17.27 76.45-25.913 114.67-0.615 2.8921-1.5209 5.751-1.6372 8.7262-0.63993 12.799-1.1635 25.597-1.8284 38.396-0.19115 1.9447 0.0582 3.8977 0.61499 5.7843 5.3604-1.8034 10.663-3.8063 16.006-5.6762 1.2134-3.4656 2.8921-6.8647 5.643-9.3579 1.5624-1.2632 3.2162-3.2495 5.4269-2.9254 2.5098 3.1498 6.7649 3.2828 10.239 4.7704 21.874 7.9118 40.224 22.722 57.668 37.689 2.327-3.2578 4.4961-6.7317 7.6292-9.2997 4.8119-4.0141 10.879-5.9837 16.663-8.1279 9.0836-2.9752 18.874-5.0363 28.406-3.2495 10.646 2.1608 19.771 9.0836 26.295 17.569 6.2164 8.0198 10.38 17.378 13.804 26.86 3.2329-1.3463 6.449-2.7675 9.8482-3.665 6.0419-1.7369 12.416-1.3962 18.616-1.0721 9.6155 0.25764 18.242 5.5266 25.331 11.635 4.3881 3.6484 6.74 8.9257 9.4493 13.804 1.8699 3.4656 3.6733 6.981 5.0114 10.696 3.1332 8.5019 3.5404 17.818 2.3354 26.736-0.73966 5.5266-3.1665 10.604-5.7427 15.491 3.6567 0.29919 7.3384 0.46539 10.962 1.097 2.0195 0.30749 4.064 0.95573 6.125 0.44878 6.1333-0.67318 12.358-0.16622 18.458 0.69809 2.7509 1.2798 2.2605 4.6707 4.1969 6.5905 14.926 16.838 25.913 37.024 42.692 52.241 3.9227-2.4183 8.8676-4.1388 13.272-1.8284 6.9311 3.6235 13.106 8.5268 19.721 12.69 5.0529 3.05 9.5823 7.5294 15.707 8.2525 9.3745 1.3381 19.372 0.34074 27.841-4.1138 3.4905-1.82 7.4796-2.7841 10.696-5.0695 2.7259-6.8813 5.2939-14.186 5.0944-21.683-10.206-7.4714-19.663-15.874-29.279-24.068-11.652-9.8067-24.035-18.707-36.285-27.741-8.319-3.9558-17.818-3.748-26.761-5.1527 0.22438-3.3908 0.9391-6.7151 1.5042-10.056 10.455 1.5541 21.741 1.4128 31.124 6.873 7.5544 5.4269 14.968 11.062 22.406 16.646 13.447 9.9895 25.572 21.6 38.803 31.872 3.2495 2.377 6.2829 5.2358 10.172 6.5655 9.0421 3.449 17.652 7.9701 26.752 11.278 4.5294 1.122 9.1252 1.9945 13.721 2.8256 8.2608 1.2882 16.156-2.1025 23.927-4.3465 3.2911-1.1386 6.9146-2.1108 9.3496-4.7787 2.942-3.1663 6.3827-6.1499 7.9701-10.289 1.7036-5.2357 2.676-10.754 5.4851-15.566 0.9391-3.9144 0.18283-8.1113-0.2909-12.067-14.444-5.7593-27.201-15.067-38.72-25.389-11.951-10.746-23.187-22.248-34.839-33.309-12.358-11.643-25.215-23.012-40.016-31.481 1.5458-3.0334 3.2911-5.9505 5.0114-8.8842 24.666 14.236 44.23 35.296 64.591 54.834 12.807 12.375 26.245 24.6 42.41 32.445 14.103 7.0226 30.101 9.9562 45.792 9.0753 1.9032-0.28258 3.6068-1.2632 5.3189-2.1026 6.8895-3.5736 13.472-8.0531 18.475-14.053 3.7896-4.4379 5.6014-10.073 7.6625-15.425 3.8229-10.388 4.1969-21.591 4.064-32.528-0.25772-6.391-2.8838-12.391-5.9588-17.885-4.604-8.2526-10.887-15.441-15.2-23.868-0.88101-1.7951-1.9448-3.5154-3.557-4.7371-9.5407-8.1113-18.051-17.336-27.093-25.971-3.8978-0.49865-7.2221-2.6844-10.638-4.4379-10.106-5.402-19.505-11.984-28.946-18.442-3.557-1.4959-5.9422-4.6208-9.175-6.607-3.7232-2.7176-7.6791-5.1028-11.269-7.9783-1.4377-3.183 2.6179-6.3328 5.6763-5.3022 1.4876-2.5514 3.0168-5.0778 4.3548-7.7124 4.1304 1.6372 7.7705 4.2883 11.693 6.366 16.422 9.3994 32.769 18.998 48.235 29.927 24.583 16.954 45.003 39.65 71.481 53.895 15.292 7.4298 31.523 12.865 48.053 16.788 3.3326 1.1136 6.4491-1.1386 9.0005-3.0167 6.8813-5.4518 12.283-12.641 16.148-20.486 3.7898-7.0808 7.1638-14.677 7.3218-22.846 0.0914-8.2193 0.0748-16.605-2.1774-24.575-5.2274-15.242-12.009-30.542-23.76-41.919-9.4493-9.3745-17.868-19.846-28.381-28.09-12.366-10.081-25.481-19.206-39.102-27.467-16.771-10.521-33.218-21.533-49.565-32.686-24.65-16.696-48.867-34.091-74.522-49.249-30.592-18.217-62.089-35.129-90.678-56.471-16.588-12.316-35.803-20.361-55.225-27.043-9.815-4.0058-20.552-1.7868-30.8-1.8201-4.2966-0.17452-8.2276 1.8201-12.25 2.9836-36.817 12.649-68.78 35.487-103.43 52.673-18.284 9.175-37.382 16.605-56.746 23.137-6.3078 2.435-13.189 0.98067-19.58-0.32412-5.6845-1.4627-11.801-3.0251-16.015-7.3799-3.7315-3.7564-7.5794-7.5461-10.156-12.225-3.3077-6.2829-2.942-13.613-3.0251-20.494-0.0166-7.6209 5.402-13.704 10.588-18.674 8.1777-7.5711 17.644-13.555 27.06-19.447 5.7178-3.6318 11.801-6.8231 16.746-11.544 5.4103-5.1277 10.181-10.987 13.995-17.403-19.863 2.0112-39.933 2.2855-59.796 0.0748-11.278-1.2632-22.672-2.4849-33.559-5.8591-2.5186 6.9727-3.2167 14.494-5.5021 21.541m-41.113 331.47c0.91418 3.7565 1.978 8.3772 5.8674 10.131 9.8815 4.521 20.029 9.0255 30.916 10.347 9.7152 1.122 18.4-4.2385 27.326-7.1472-0.13296 14.486 0.98889 28.988 3.4323 43.257 0.55681 3.7149 2.8755 6.9478 6.1832 8.718 6.7899 3.8644 13.222 8.5932 20.752 10.97 5.3189 1.7619 10.862 2.7342 16.372 3.7564 2.194 0.59007 4.2717-0.60667 6.125-1.6289 6.9145-4.2302 12.533-10.621 20.062-13.771 0.31572 5.0196 0.98888 10.023 0.94741 15.067 0.18284 5.8508-0.26594 12.175 2.7924 17.436 3.2828 5.6846 7.9533 10.372 11.768 15.674 1.8699 2.7509 5.0612 4.0723 8.0282 5.2939 9.8814 3.8064 20.411 5.3189 30.692 7.6293 7.1805 1.953 13.488 6.1167 19.622 10.189 5.4435 3.8645 10.837 7.9284 15.292 12.931 4.3549 4.8702 6.4574 11.569 11.685 15.657 3.6152 0.83109 7.3799 0.94744 11.053 1.5375 16.663 2.7259 33.318-3.4074 47.72-11.311-12.084-11.652-21.359-25.747-31.456-39.052-1.5873-1.9863-2.8838-4.4795-5.5099-5.1942-8.3606-4.7455-17.087-9.3246-26.711-10.796-9.1002-1.3214-18.333-0.97235-27.5-1.0471 3.3908-5.9505 7.3716-11.544 10.663-17.552 3.7398-6.4325 4.1886-14.12 3.6152-21.367-0.43216-7.0724-3.4406-13.613-6.848-19.696-2.1109-3.6318-3.6484-7.7705-6.9561-10.53-4.1055-3.6567-8.8842-6.6569-14.12-8.3689-4.7704-1.0305-9.7069-1.097-14.569-0.96405-9.0172 0.5402-16.721 5.7427-24.774 9.2748-3.1498-11.768-7.1222-23.578-14.303-33.559-5.2191-7.3218-12.657-13.646-21.674-15.416-9.2997-1.3464-18.608 1.2882-27.218 4.5958-4.0972 1.6289-8.477 3.3575-11.228 6.9893-3.4905 4.5875-6.1001 9.7568-8.9423 14.743-3.7398-2.2605-6.6818-5.5848-10.122-8.2442-17.835-15.267-36.758-30.559-59.663-37.315-0.35744 12.898-1.6872 25.971 0.68141 38.761z" stroke="#fff" stroke-width=".077955"/>


	
</svg>
