<?xml version="1.0" encoding="UTF-8"?>
<svg version="1.1" viewBox="0 0 410 416" xmlns="http://www.w3.org/2000/svg" xmlns:cc="http://creativecommons.org/ns#" xmlns:dc="http://purl.org/dc/elements/1.1/" xmlns:rdf="http://www.w3.org/1999/02/22-rdf-syntax-ns#" xmlns:xlink="http://www.w3.org/1999/xlink"><metadata><rdf:RDF><cc:Work rdf:about=""><dc:format>image/svg+xml</dc:format><dc:type rdf:resource="http://purl.org/dc/dcmitype/StillImage"/><dc:title/></cc:Work></rdf:RDF></metadata><defs><linearGradient id="a"><stop stop-color="#f5f5f5" offset="0"/><stop stop-color="#e5e5e5" offset="1"/></linearGradient><linearGradient id="b"><stop stop-color="#565656" offset="0"/><stop stop-color="#fff" offset="1"/></linearGradient><linearGradient id="p" x1="87.286" x2="301.38" y1="363.66" y2="228.3" gradientUnits="userSpaceOnUse"><stop stop-color="#d0d0d0" offset="0"/><stop stop-color="#fff" offset="1"/></linearGradient><linearGradient id="o" x1="99.348" x2="308.95" y1="150.36" y2="75.104" gradientUnits="userSpaceOnUse"><stop offset="0"/><stop stop-color="#616161" offset="1"/></linearGradient><linearGradient id="l" x1="237.84" x2="167.13" y1="244.45" y2="90.905" gradientUnits="userSpaceOnUse"><stop stop-color="#3ca1f6" offset="0"/><stop stop-color="#207dcc" offset="1"/></linearGradient><linearGradient id="j" x1="80.243" x2="208.65" y1="392.2" y2="254.95" gradientUnits="userSpaceOnUse"><stop stop-color="#f7f7f7" offset="0"/><stop stop-color="#e1e1e1" offset="1"/></linearGradient><linearGradient id="n" x1="239.83" x2="171.41" y1="198.64" y2="262.28" gradientUnits="userSpaceOnUse" xlink:href="#a"/><linearGradient id="m" x1="186.59" x2="325.04" y1="217.67" y2="250.5" gradientUnits="userSpaceOnUse" xlink:href="#a"/><linearGradient id="k" x1="296.9" x2="188.41" y1="68.568" y2="391.43" gradientUnits="userSpaceOnUse" xlink:href="#b"/><linearGradient id="i" x1="250.59" x2="331.71" y1="299.49" y2="35.842" gradientUnits="userSpaceOnUse" xlink:href="#b"/><radialGradient id="h" cx="197.86" cy="202.14" r="189.36" gradientUnits="userSpaceOnUse"><stop offset="0"/><stop offset=".81875"/><stop stop-opacity="0" offset="1"/></radialGradient><radialGradient id="g" cx="197.86" cy="202.14" r="189.29" gradientUnits="userSpaceOnUse"><stop stop-color="#f7f7f7" offset="0"/><stop stop-color="#c2c2c2" offset="1"/></radialGradient><radialGradient id="f" cx="295.91" cy="-341.76" r="189.29" gradientTransform="matrix(.96168 .49722 -.36946 .71457 -93.626 109.93)" gradientUnits="userSpaceOnUse"><stop stop-color="#fff" offset="0"/><stop stop-color="#fff" stop-opacity=".56471" offset=".5"/><stop stop-color="#fff" stop-opacity="0" offset="1"/></radialGradient><radialGradient id="e" cx="197.86" cy="630.49" r="189.29" gradientTransform="matrix(1.071 0 0 .66819 -14.045 -29.86)" gradientUnits="userSpaceOnUse"><stop stop-color="#30a9ec" offset="0"/><stop stop-color="#0a4c71" stop-opacity="0" offset="1"/></radialGradient><radialGradient id="d" cx="197.86" cy="202.14" r="189.29" gradientUnits="userSpaceOnUse"><stop stop-color="#266080" offset="0"/><stop stop-color="#112d3c" offset="1"/></radialGradient><radialGradient id="c" cx="293.05" cy="160.01" r="189.29" gradientTransform="matrix(2.0751 .55601 -.63991 2.3882 -187.16 -314.92)" gradientUnits="userSpaceOnUse"><stop stop-color="#9b9b9b" offset="0"/><stop stop-color="#454545" offset="1"/></radialGradient></defs><g transform="matrix(.85676 0 0 .85676 25.08 18.658)"><g fill-rule="evenodd"><path transform="matrix(1.083,0,0,1.083,-4.283,5.0755)" d="m387.14 202.14a189.29 189.29 0 1 1-378.57 0 189.29 189.29 0 1 1 378.57 0z" fill="url(#h)"/><path transform="matrix(1.0566 0 0 1.0566 5.9434 -.58488)" d="m387.14 202.14a189.29 189.29 0 1 1-378.57 0 189.29 189.29 0 1 1 378.57 0z" fill="url(#i)"/><path transform="matrix(1.0355,0,0,1.0355,10.125,3.6868)" d="m387.14 202.14a189.29 189.29 0 1 1-378.57 0 189.29 189.29 0 1 1 378.57 0z" fill="#b1b1b1"/><path transform="matrix(1.0002 .268 -.268 1.0002 71.28 -42.207)" d="m387.14 202.14a189.29 189.29 0 1 1-378.57-1e-5l189.29 1e-5z" fill="url(#c)"/><path transform="matrix(-1.0002 -.268 .268 -1.0002 358.72 468.21)" d="m387.14 202.14a189.29 189.29 0 1 1-378.57-1e-5l189.29 1e-5z" fill="url(#j)"/><path transform="matrix(.87698 0 0 .87698 41.483 35.725)" d="m387.14 202.14a189.29 189.29 0 1 1-378.57 0 189.29 189.29 0 1 1 378.57 0z" fill="url(#k)"/><path transform="matrix(.84528 0 0 .84528 47.755 42.132)" d="m387.14 202.14a189.29 189.29 0 1 1-378.57 0 189.29 189.29 0 1 1 378.57 0z" fill="url(#d)"/><path transform="matrix(.81887 0 0 .81887 52.981 47.472)" d="m387.14 202.14a189.29 189.29 0 1 1-378.57 0 189.29 189.29 0 1 1 378.57 0z" fill="url(#e)"/><path transform="matrix(.79245 0 0 .79245 58.208 52.811)" d="m387.14 202.14a189.29 189.29 0 1 1-378.57 0 189.29 189.29 0 1 1 378.57 0z" fill="url(#f)"/><path d="m140.88 87.493-4.3003 2.5741 68.978 114.87c-2.8398 2.5255-4.6131 6.2032-4.543 10.298 0.12769 7.4509 6.2784 13.394 13.729 13.267 1.5731-0.027 3.0589-0.33823 4.4547-0.85771l14.478 24.13 4.269-2.5735-14.478-24.13c2.8398-2.5255 4.6131-6.2032 4.543-10.298-0.12769-7.4509-6.2784-13.394-13.729-13.267-1.5731 0.027-3.0589 0.33823-4.4547 0.85771l-68.947-114.87z" fill-opacity=".16571"/><path d="m143.56 84.25-4.3438 2.5 67 116.03c-2.8826 2.4765-4.7188 6.1232-4.7188 10.219 0 7.452 6.048 13.5 13.5 13.5 1.5733 0 3.0643-0.28577 4.4688-0.78125l14.062 24.375 4.3125-2.5-14.062-24.375c2.8826-2.4765 4.7188-6.1232 4.7188-10.219 0-7.452-6.048-13.5-13.5-13.5-1.5733 0-3.0643 0.28577-4.4688 0.78125l-66.969-116.03z" fill="url(#l)"/><path d="m215.2 202.64c-4.2917-0.0731-8.0726 2.1275-10.251 5.4825l-16.36-4.6855-1.9272 6.7182 16.36 4.6855c0.10828 6.4359 5.2847 11.685 11.77 11.796 4.2975 0.0732 8.1053-2.1193 10.282-5.482l115.7 33.131 1.8959-6.7187-115.7-33.131c-0.10828-6.4359-5.2847-11.685-11.77-11.796z" fill-opacity=".16571"/><path d="m215 201c-4.2923 0-8.0352 2.2647-10.156 5.6562l-16.438-4.4062-1.8125 6.75 16.438 4.4062c0.21786 6.4331 5.4829 11.594 11.969 11.594 4.2982 0 8.068-2.257 10.188-5.6562l116.25 31.156 1.7812-6.75-116.25-31.156c-0.21786-6.4331-5.4829-11.594-11.969-11.594z" fill="url(#m)"/><path d="m233.43 192.69-12.673 13.013c-1.6908-1.1102-3.7248-1.7321-5.8981-1.7033-5.7955 0.0768-10.437 4.8427-10.36 10.638 0.0288 2.1733 0.70429 4.1901 1.8589 5.8509l-54.113 55.565 2.8812 2.8058 54.113-55.565c1.6908 1.1102 3.7248 1.7321 5.8981 1.7033 5.7955-0.0768 10.437-4.8427 10.36-10.638-0.0288-2.1733-0.70429-4.1901-1.8589-5.8509l12.673-13.013z" fill-opacity=".16571"/><path d="m233.72 191.44-12.844 12.844c-1.6759-1.1325-3.7015-1.7812-5.875-1.7812-5.796 0-10.5 4.704-10.5 10.5 0 2.1735 0.64873 4.1991 1.7812 5.875l-54.844 54.844 2.8438 2.8438 54.844-54.844c1.6759 1.1325 3.7015 1.7812 5.875 1.7812 5.796 0 10.5-4.704 10.5-10.5 0-2.1735-0.64873-4.1991-1.7812-5.875l12.844-12.844z" fill="url(#n)"/><path transform="matrix(.042264 0 0 .042264 206.64 204.46)" d="m387.14 202.14a189.29 189.29 0 1 1-378.57 0 189.29 189.29 0 1 1 378.57 0z" fill="#9c9c9c"/><path transform="matrix(.036981 0 0 .036981 207.68 205.52)" d="m387.14 202.14a189.29 189.29 0 1 1-378.57 0 189.29 189.29 0 1 1 378.57 0z" fill="url(#g)"/></g><path d="m213.13 22.688-7.4688 0.46875 0.0312 0.75c0.42166 0.01393 0.76926 0.0387 1.0312 0.0625 0.28068 0.0026 0.4916 0.02384 0.65625 0.09375 0.18336 0.04875 0.33768 0.14526 0.40625 0.28125 0.0873 0.11483 0.11011 0.29173 0.125 0.53125 0.0285 0.45913-0.20568 1.147-0.75 2.0625-0.52562 0.89429-1.3051 2.0997-2.3125 3.625l-3.1875-4.3125c-0.32792-0.44051-0.48265-0.78302-0.5-1.0625-0.0198-0.31937 0.059-0.56661 0.25-0.71875 0.2109-0.15334 0.58726-0.25907 1.125-0.3125 0.0599-0.0037 0.3498-0.05037 0.90625-0.125l-0.0312-0.71875-10.375 0.625 0.0625 0.75c0.54144 0.0065 0.96819 0.11153 1.2812 0.3125s0.71751 0.63107 1.2188 1.2812l6.4688 8.3438-4.8125 6.9375c-0.42443 0.58742-0.85696 1.0145-1.2812 1.2812s-1.0164 0.46806-1.75 0.59375l0.0625 0.75 7.4688-0.46875-0.0312-0.75c-0.92443-0.04281-1.5683-0.14386-1.9375-0.28125-0.3505-0.15859-0.53897-0.40198-0.5625-0.78125-0.0198-0.31938 0.12788-0.8264 0.46875-1.4688s1.0388-1.7573 2.0625-3.3438l1.0312-1.5938 3.3125 4.6875c0.46007 0.63272 0.72396 1.1433 0.75 1.5625 0.031 0.49904-0.46572 0.81319-1.5 0.9375-0.0399 0.0025-0.32723 0.05287-0.84375 0.125l0.0312 0.71875 10.188-0.625-0.0312-0.75c-0.52026 0.01225-0.96587-0.09788-1.3438-0.375-0.35919-0.29832-0.93325-0.96667-1.7188-2l-6-8.1562 2.1875-3.4688c1.2072-1.8583 2.1235-3.0651 2.75-3.625s1.5133-0.92454 2.625-1.0938zm3.5312 0.1875-0.0312 0.75c1.0764 0.11861 1.7872 0.31161 2.1562 0.625 0.38972 0.29415 0.58968 0.83425 0.5625 1.5938l-0.53125 14.5c-0.0272 0.75952-0.23522 1.2963-0.625 1.5625-0.36979 0.26694-1.0959 0.40889-2.2188 0.46875l-0.0312 0.75 10.469 0.375 0.0312-0.75c-1.1364-0.12074-1.8803-0.33158-2.25-0.625s-0.52792-0.81425-0.5-1.5938l0.5-14.5c0.0279-0.77948 0.24576-1.3395 0.65625-1.625s1.1805-0.40562 2.2812-0.40625l0.0312-0.75zm12.969 0.53125-0.0625 0.75c1.0658 0.19224 1.7784 0.44327 2.125 0.78125 0.36861 0.32022 0.51676 0.86916 0.4375 1.625l-1.5312 14.438c-0.0793 0.75586-0.31162 1.2612-0.71875 1.5-0.38725 0.24092-1.1569 0.36113-2.2812 0.34375l-0.0625 0.75 10.438 1.0938 0.0625-0.75c-1.1254-0.19848-1.8388-0.46314-2.1875-0.78125s-0.48763-0.88051-0.40625-1.6562l1.5-14.438c0.0814-0.77573 0.35213-1.2746 0.78125-1.5312s1.1831-0.3562 2.2812-0.28125l0.0937-0.75zm-103.34 22.219-9.0938 5.1875 0.34375 0.65625c0.97801-0.46509 1.7088-0.66629 2.1875-0.59375 0.48617 0.0453 0.93629 0.40216 1.3125 1.0625l7.1875 12.594c0.37622 0.66035 0.47282 1.2249 0.28125 1.6562-0.17419 0.42149-0.7326 0.95245-1.6562 1.5938l0.34375 0.65625 9.1562-5.2188-0.375-0.625c-1.0301 0.49481-1.7812 0.71144-2.25 0.65625s-0.89514-0.41601-1.2812-1.0938l-7.1875-12.625c-0.38611-0.67771-0.48029-1.2601-0.28125-1.7188s0.78278-0.98321 1.7188-1.5625zm188.31 5.4688-0.40625 0.625c0.86063 0.65734 1.377 1.2286 1.5312 1.6875 0.18189 0.45313 0.0404 0.9886-0.375 1.625l-7.9062 12.156c-0.41543 0.63641-0.8725 0.97324-1.3438 1-0.45451 0.03769-1.195-0.22154-2.1875-0.75l-0.40625 0.625 8.8125 5.75 0.40625-0.625c-0.9109-0.69013-1.4599-1.2453-1.625-1.6875s-0.0201-1.0031 0.40625-1.6562l7.9375-12.156c0.42634-0.65315 0.87604-0.99867 1.375-1.0312s1.2132 0.24473 2.1562 0.8125l0.40625-0.625zm-200.5 1.4375-6.125 4.3125 0.4375 0.625c0.36591-0.21 0.63967-0.3824 0.875-0.5 0.24008-0.14543 0.47943-0.22282 0.65625-0.25 0.18157-0.055 0.33889-0.04833 0.46875 0.03125 0.13463 0.05174 0.23633 0.17914 0.375 0.375 0.26578 0.37547 0.41875 1.0914 0.4375 2.1562 0.0235 1.0371-8e-3 2.4541-0.0625 4.2812l-4.9375-1.9688c-0.51064-0.20209-0.83822-0.4277-1-0.65625-0.1849-0.26115-0.26984-0.4889-0.1875-0.71875 0.0987-0.24136 0.38332-0.54665 0.8125-0.875 0.049-0.03465 0.2848-0.20627 0.71875-0.5625l-0.4375-0.625-8.4688 5.9688 0.4375 0.65625c0.46387-0.27935 0.87804-0.41246 1.25-0.40625 0.37196 0.0062 0.95041 0.14829 1.7188 0.4375l9.875 3.6875-0.46875 8.4375c-0.0519 0.72285-0.1858 1.2999-0.40625 1.75s-0.56725 0.94465-1.125 1.4375l0.4375 0.59375 6.0938-4.3125-0.4375-0.625c-0.80867 0.44995-1.395 0.70384-1.7812 0.78125-0.38151 0.04954-0.6867-0.06484-0.90625-0.375-0.1849-0.26118-0.32694-0.77439-0.375-1.5-0.0481-0.72561-0.0359-2.0185 0-3.9062l0.0312-1.9062 5.2812 2.1875c0.72414 0.29602 1.2261 0.65721 1.4688 1 0.2889 0.4081 0.0329 0.91264-0.78125 1.5625-0.0327 0.02312-0.25496 0.19816-0.65625 0.53125l0.4375 0.625 8.3125-5.9062-0.4375-0.59375c-0.43599 0.28414-0.8766 0.38061-1.3438 0.34375-0.46241-0.06472-1.3196-0.31576-2.5312-0.78125l-9.3438-3.7812 0.0312-4.0938c0.0489-2.2155 0.19926-3.7255 0.4375-4.5312s0.79989-1.5837 1.6562-2.3125zm261.31 57.813-0.625 0.40625c0.49237 0.96454 0.68406 1.6757 0.625 2.1562-0.0316 0.48724-0.3505 0.91788-1 1.3125l-12.438 7.5625c-0.64954 0.39462-1.1884 0.49188-1.625 0.3125-0.4262-0.16227-0.95799-0.68848-1.625-1.5938l-0.65625 0.375 5.4688 8.9688 0.625-0.375c-0.52356-1.0158-0.76076-1.7799-0.71875-2.25 0.042-0.47014 0.42714-0.9075 1.0938-1.3125l12.406-7.5312c0.66658-0.40501 1.2234-0.49858 1.6875-0.3125s0.98837 0.73693 1.5938 1.6562l0.65625-0.375zm-321.09 0.71875-3.6875 6.5312 0.65625 0.375c0.24103-0.34626 0.46253-0.60561 0.625-0.8125 0.15489-0.23411 0.28927-0.39985 0.4375-0.5 0.14064-0.12733 0.28609-0.20393 0.4375-0.1875 0.14383-0.0108 0.32216 0.0385 0.53125 0.15625 0.40077 0.22584 0.84038 0.82654 1.3125 1.7812 0.46454 0.92749 1.0805 2.2312 1.8125 3.9062l-5.375 0.3125c-0.54802 0.0356-0.94355-0.0188-1.1875-0.15625-0.27878-0.15708-0.4137-0.35076-0.4375-0.59375-0.01396-0.26038 0.0961-0.61345 0.34375-1.0938 0.02947-0.0523 0.16621-0.33621 0.40625-0.84375l-0.65625-0.375-5.0938 9.0312 0.65625 0.375c0.29995-0.45081 0.62983-0.75288 0.96875-0.90625s0.90053-0.24555 1.7188-0.3125l10.531-0.90625 3.1875 7.8438c0.26207 0.67568 0.3819 1.2489 0.375 1.75s-0.14393 1.0973-0.4375 1.7812l0.65625 0.375 3.6875-6.5312-0.65625-0.375c-0.53875 0.75244-0.96513 1.2336-1.2812 1.4688-0.32372 0.20786-0.66894 0.2178-1 0.0312-0.27879-0.15708-0.58389-0.55207-0.9375-1.1875s-0.91305-1.8093-1.6875-3.5312l-0.78125-1.75 5.7188-0.25c0.78118-0.0419 1.3528 0.0438 1.7188 0.25 0.4356 0.24547 0.42701 0.84572-0.03125 1.7812-0.01964 0.0348-0.12334 0.27733-0.34375 0.75l0.65625 0.375 5-8.875-0.65625-0.375c-0.2727 0.44323-0.62442 0.7399-1.0625 0.90625-0.4457 0.13914-1.3306 0.24665-2.625 0.34375l-10.062 0.59375-1.7188-3.7188c-0.90278-2.0238-1.4334-3.451-1.5625-4.2812s0.03733-1.7564 0.5-2.7812zm327.75 10.406-0.65625 0.375c0.42587 0.99571 0.59149 1.7121 0.5 2.1875-0.0646 0.48397-0.41899 0.90032-1.0938 1.25l-12.875 6.6875c-0.67477 0.3497-1.2328 0.42729-1.6562 0.21875-0.41426-0.19081-0.95836-0.77035-1.5625-1.7188l-0.65625 0.375 4.8438 9.2812 0.65625-0.34375c-0.45351-1.049-0.63625-1.815-0.5625-2.2812 0.0738-0.46622 0.46374-0.85985 1.1562-1.2188l12.906-6.6875c0.6925-0.35891 1.2683-0.43585 1.7188-0.21875s0.92708 0.79179 1.4688 1.75l0.65625-0.3125zm22.375 75.219-0.75 0.0312c-0.0166 1.0828-0.19156 1.8218-0.46875 2.2188-0.25611 0.41571-0.74132 0.64296-1.5 0.6875l-14.5 0.84375c-0.75869 0.0445-1.292-0.0746-1.5938-0.4375-0.30062-0.34299-0.55332-1.1065-0.71875-2.2188l-0.75 0.0625 0.65625 10.469 0.75-0.0312c0.0131-1.1427 0.14898-1.9168 0.40625-2.3125s0.75259-0.61056 1.5312-0.65625l14.469-0.875c0.77863-0.0457 1.3646 0.1495 1.6875 0.53125s0.5206 1.0917 0.625 2.1875h0.75zm-19.625 12.75-0.0937 10.5 0.75 0.0312c0.0907-1.1392 0.27894-1.9039 0.5625-2.2812s0.84503-0.53858 1.625-0.53125l14.5 0.0937c0.77996 7e-3 1.2975 0.22219 1.5938 0.625s0.47032 1.1497 0.5 2.25l0.75 0.0312 0.0937-10.5-0.75-0.0312c-0.0901 1.0792-0.29022 1.8103-0.59375 2.1875-0.28377 0.39735-0.7713 0.60087-1.5312 0.59375l-14.531-0.125c-0.75998-7e-3 -1.2861-0.21114-1.5625-0.59375-0.2766-0.36261-0.47302-1.0979-0.5625-2.2188zm-0.125 11.625-0.8125 10.469 0.75 0.0312c0.16849-1.1303 0.41002-1.8304 0.71875-2.1875s0.81611-0.52947 1.5938-0.46875l14.5 1.125c0.77761 0.0607 1.3258 0.32786 1.5938 0.75s0.32698 1.1814 0.28125 2.2812l0.75 0.0312 0.84375-10.438-0.75-0.0937c-0.16383 1.0705-0.42135 1.8008-0.75 2.1562-0.31032 0.37698-0.83609 0.52791-1.5938 0.46875l-14.469-1.0938c-0.7577-0.0592-1.2504-0.31811-1.5-0.71875-0.25113-0.38071-0.39372-1.1256-0.40625-2.25z" fill="url(#o)"/><path d="m25.469 195.69-0.3125 7.5312h0.75c0.05625-0.41811 0.13748-0.74172 0.1875-1 0.03085-0.279 0.07013-0.49946 0.15625-0.65625 0.06694-0.17752 0.1703-0.2892 0.3125-0.34375 0.12302-0.0753 0.3227-0.10303 0.5625-0.0937 0.45967 0.0178 1.0814 0.33515 1.9375 0.96875 0.83691 0.61287 1.99 1.5006 3.4062 2.6562l-4.625 2.7188c-0.47125 0.28196-0.84519 0.41709-1.125 0.40625-0.31974-0.0124-0.55533-0.1072-0.6875-0.3125-0.13136-0.22523-0.18841-0.61587-0.1875-1.1562 0.0023-0.0599 0.0183-0.37637 0-0.9375h-0.75l-0.4375 10.344 0.75 0.0625c0.0609-0.53805 0.20607-0.98999 0.4375-1.2812s0.70897-0.62919 1.4062-1.0625l8.9688-5.625 6.4062 5.5312c0.54177 0.48135 0.90222 0.95731 1.125 1.4062s0.38622 1.0075 0.4375 1.75l0.75 0.0625 0.28125-7.5312h-0.75c-0.13555 0.91546-0.29493 1.5215-0.46875 1.875-0.19303 0.33277-0.49528 0.51472-0.875 0.5-0.31976-0.0124-0.73893-0.25252-1.3438-0.65625s-1.6495-1.1657-3.125-2.3438l-1.5-1.1875 4.9688-2.8438c0.67577-0.39412 1.2053-0.57875 1.625-0.5625 0.49963 0.0194 0.79282 0.55223 0.8125 1.5938-0.0016 0.04 0.01141 0.3226 0.03125 0.84375h0.75l0.375-10.156-0.75-0.0625c-0.04012 0.51885-0.21754 0.9644-0.53125 1.3125-0.33293 0.32738-1.0492 0.82238-2.1562 1.5l-8.6875 5.125-3.25-2.5c-1.7275-1.3879-2.8184-2.4453-3.3125-3.125s-0.75593-1.5644-0.8125-2.6875zm19.719 22.062-0.75 0.0312c-0.0121 1.1428-0.14933 1.9165-0.40625 2.3125s-0.75263 0.64114-1.5312 0.6875l-14.5 0.84375c-0.7786 0.0464-1.333-0.11853-1.6562-0.5s-0.51967-1.1231-0.625-2.2188l-0.75 0.0625 0.625 10.469 0.75-0.0312c0.01568-1.0828 0.16064-1.8528 0.4375-2.25 0.25575-0.41593 0.74136-0.64232 1.5-0.6875l14.5-0.84375c0.75866-0.0452 1.2917 0.10606 1.5938 0.46875 0.3009 0.3427 0.55236 1.0754 0.71875 2.1875l0.75-0.0625zm10.312 52.062-0.6875 0.25c0.33607 1.0923 0.4368 1.8884 0.3125 2.3438s-0.55363 0.78151-1.2812 1.0625l-13.562 5.25c-0.72761 0.281-1.2948 0.29631-1.7188 0.0312-0.42399-0.26506-0.81638-0.92577-1.25-1.9375l-0.71875 0.28125 3.75 9.8125 0.71875-0.28125c-0.31443-1.0363-0.39294-1.7562-0.25-2.2188 0.11711-0.47402 0.5098-0.88247 1.2188-1.1562l13.562-5.2188c0.70897-0.2738 1.2894-0.28486 1.6875-0.0312 0.3909 0.23495 0.81572 0.86624 1.3125 1.875l0.6875-0.28125zm4.2188 10.781-0.65625 0.3125c0.41046 1.0666 0.56141 1.8497 0.46875 2.3125s-0.48094 0.88834-1.1875 1.2188l-13.156 6.125c-0.70654 0.33041-1.2775 0.36024-1.7188 0.125s-0.93526-0.83302-1.4375-1.8125l-0.65625 0.3125 4.4375 9.5312 0.65625-0.34375c-0.38503-1.0122-0.51701-1.7162-0.40625-2.1875 0.0842-0.48098 0.49908-0.89679 1.1875-1.2188l13.156-6.1562c0.68845-0.32197 1.2416-0.3506 1.6562-0.125 0.40614 0.2075 0.87246 0.77783 1.4375 1.75l0.6875-0.3125zm309.84 2.9375-4.6562 9.4062 0.6875 0.375c0.57598-0.98704 1.0808-1.6268 1.5-1.8438s0.95669-0.12626 1.6562 0.21875l13.062 6.4375c0.69955 0.345 1.0641 0.7273 1.1562 1.2188 0.0922 0.49145-0.0806 1.2457-0.53125 2.25l0.65625 0.3125 4.6562-9.375-0.65625-0.34375c-0.54943 0.93324-1.0316 1.5106-1.4688 1.7188-0.42804 0.23489-1.0059 0.1799-1.6875-0.15625l-13-6.4375c-0.68161-0.33614-1.1045-0.72284-1.1875-1.1875-0.0919-0.44674 0.0631-1.2013 0.46875-2.25zm-304.88 7.5625-0.6875 0.375c0.48286 1.0358 0.7481 1.7819 0.6875 2.25s-0.47409 0.90303-1.1562 1.2812l-12.656 7.0312c-0.68214 0.37824-1.2624 0.48559-1.7188 0.28125s-0.99408-0.77613-1.5625-1.7188l-0.65625 0.34375 5.125 9.1875 0.625-0.375c-0.45373-0.9833-0.64058-1.7097-0.5625-2.1875 0.05093-0.48562 0.39785-0.91272 1.0625-1.2812l12.719-7.0312c0.66466-0.36853 1.2271-0.4778 1.6562-0.28125 0.41945 0.17905 0.93193 0.7565 1.5625 1.6875l0.65625-0.375zm294.06 11.344-0.40625 0.6875 11.344 15.094c0.60794 0.80223 0.94557 1.4448 1.0312 1.875 0.0751 0.44712-0.0478 1.0349-0.375 1.75l0.625 0.375 3.375-5.4375-0.625-0.375c-0.63849 0.87472-1.1326 1.4065-1.4375 1.5938s-0.65497 0.15981-1.0625-0.0937c-0.33965-0.21134-0.84527-0.7778-1.5-1.6562l-6.375-8.4375 10.719 1.7812c1.16 0.17996 1.8818 0.34106 2.1875 0.53125 0.56037 0.34866 0.57151 1.0058 0.0625 1.9375-0.0317 0.0509-0.15451 0.3444-0.4375 0.875l0.625 0.40625 5.3125-8.5938-0.625-0.375c-0.47586 0.57546-0.86709 0.95154-1.2188 1.0625s-1.0093 0.0793-1.9062-0.0312zm-282.69 6.5-18.406 4.3438c-0.97801 0.238-1.6963 0.31157-2.125 0.21875-0.44005-0.10924-0.91191-0.4463-1.4375-1.0312l-0.59375 0.4375 3.625 5.25 0.59375-0.4375c-0.54793-0.93411-0.82476-1.552-0.875-1.9062s0.10508-0.66471 0.5-0.9375c0.32915-0.22733 1.0272-0.4682 2.0938-0.71875l10.281-2.4688-5.875 9.0938c-0.6272 0.99228-1.0788 1.5767-1.375 1.7812-0.54304 0.3751-1.1607 0.15058-1.8125-0.6875-0.03407-0.0494-0.21983-0.31032-0.59375-0.78125l-0.625 0.4375 5.7188 8.2812 0.65625-0.40625c-0.33825-0.6657-0.53832-1.1957-0.5-1.5625s0.29126-0.94006 0.75-1.7188l10.438-16.531zm33.531 37.375-0.4375 0.59375c0.86801 0.74334 1.3928 1.33 1.5312 1.7812s-0.0354 0.99849-0.5 1.625l-8.625 11.656c-0.46463 0.6265-0.96874 0.9348-1.4688 0.9375-0.50001 3e-3 -1.1864-0.28312-2.0938-0.90625l-0.46875 0.59375 8.4375 6.25 0.4375-0.59375c-0.81979-0.70764-1.2797-1.3139-1.4062-1.7812-0.15446-0.46318-0.0152-0.98332 0.4375-1.5938l8.6562-11.688c0.45273-0.61043 0.90299-0.90771 1.375-0.90625 0.45595-0.0104 1.1658 0.25689 2.125 0.84375l0.46875-0.59375zm9.375 6.875-0.4375 0.625c0.91699 0.68204 1.4872 1.2468 1.6562 1.6875s0.0455 0.99933-0.375 1.6562l-7.8125 12.219c-0.42054 0.65692-0.90761 0.99424-1.4062 1.0312-0.49864 0.037-1.2082-0.22187-2.1562-0.78125l-0.40625 0.625 8.8438 5.6875 0.375-0.625c-0.86644-0.64969-1.3417-1.23-1.5-1.6875-0.1859-0.45148-0.0973-0.98493 0.3125-1.625l7.8438-12.219c0.40976-0.64008 0.8415-1.0003 1.3125-1.0312 0.45416-0.0417 1.1903 0.19912 2.1875 0.71875l0.40625-0.625zm187.34 3.1875-0.65625 0.4375 3.625 18.531c0.19871 0.98674 0.23489 1.7003 0.125 2.125-0.12676 0.43533-0.48824 0.90446-1.0938 1.4062l0.40625 0.625 5.4062-3.4062-0.40625-0.625c-0.95525 0.51015-1.6128 0.77649-1.9688 0.8125-0.35594 0.036-0.64946-0.15699-0.90625-0.5625-0.21398-0.33798-0.44854-1.0493-0.65625-2.125l-2.0625-10.375 8.875 6.25c0.96641 0.66636 1.5574 1.1646 1.75 1.4688 0.35307 0.5576 0.0822 1.1323-0.78125 1.75-0.0507 0.0321-0.32699 0.23897-0.8125 0.59375l0.40625 0.625 8.5312-5.375-0.40625-0.65625c-0.67871 0.31137-1.1976 0.45922-1.5625 0.40625-0.36494-0.053-0.92777-0.32301-1.6875-0.8125zm-168.91 7.0938-14.062 12.562c-0.74782 0.67373-1.3598 1.0657-1.7812 1.1875-0.43916 0.11272-1.0097 0.0466-1.75-0.21875l-0.34375 0.6875 5.6875 2.875 0.34375-0.65625c-0.92567-0.56207-1.5064-0.96205-1.7188-1.25s-0.2181-0.66619 0-1.0938c0.1818-0.35632 0.71144-0.89819 1.5312-1.625l7.875-7.0625-0.875 10.781c-0.081 1.1711-0.21138 1.9293-0.375 2.25-0.29991 0.58789-0.93474 0.67825-1.9062 0.25-0.0534-0.0273-0.35358-0.16922-0.90625-0.40625l-0.34375 0.65625 9 4.625 0.3125-0.6875c-0.61373-0.42537-0.98464-0.81525-1.125-1.1562s-0.19037-0.9719-0.15625-1.875l1.3125-19.469zm86.969 18.5-0.8125 0.0312-5.8438 17.969c-0.3074 0.95847-0.60333 1.6202-0.90625 1.9375-0.32287 0.31835-0.88297 0.54444-1.6562 0.6875l0.0312 0.75 6.375-0.375-0.0312-0.75c-1.0828-0.0201-1.7654-0.0767-2.0938-0.21875-0.32839-0.14201-0.53592-0.45826-0.5625-0.9375-0.0221-0.39941 0.12584-1.1157 0.46875-2.1562l3.2812-10.062 4.6875 9.7812c0.51909 1.0528 0.79256 1.7343 0.8125 2.0938 0.0365 0.65898-0.47618 1.0689-1.5312 1.1875-0.0599 3e-3 -0.37188 0.0206-0.96875 0.0937l0.0312 0.75 10.062-0.5625-0.0625-0.75c-0.7444-0.0589-1.2696-0.18214-1.5625-0.40625s-0.63768-0.73356-1.0625-1.5312zm-21.938 0.4375-0.0312 0.75c1.1356 0.12851 1.8823 0.3603 2.25 0.65625s0.53327 0.84571 0.5 1.625l-0.59375 14.5c-0.0332 0.77927-0.27507 1.2798-0.6875 1.5625s-1.1493 0.41316-2.25 0.40625l-0.0625 0.75 10.5 0.46875 0.0312-0.75c-1.0756-0.12599-1.8206-0.34035-2.1875-0.65625-0.38771-0.29681-0.5324-0.8032-0.5-1.5625l0.59375-14.531c0.0324-0.75932 0.26466-1.2677 0.65625-1.5312 0.3716-0.26439 1.0955-0.41658 2.2188-0.46875l0.0625-0.75z" fill="url(#p)"/></g></svg>
